<svg xmlns="http://www.w3.org/2000/svg" viewBox="0 0 85.63 83.14"><defs><style>.cls-1{fill:#0b318f;}</style></defs><g id="圖層_2" data-name="圖層 2"><g id="圖層_1-2" data-name="圖層 1"><path class="cls-1" d="M49.61,32.84c-1.65,2.54-6.47,8.85-6.49,8.86s-5.36-5.83-7.23-8.21a50,50,0,0,1-6.06-9.3c-1.45-3-4.26-10.29,3.44-16.55A13.71,13.71,0,0,1,35.8,6a13.31,13.31,0,0,1,5.66-1.36v0a13.15,13.15,0,0,1,5.76.84,13.73,13.73,0,0,1,2.66,1.38C58.13,12.4,56,19.94,54.81,23A50.27,50.27,0,0,1,49.61,32.84Z"/><path class="cls-1" d="M34.55,34.53c1.93,2.33,6.54,8.8,6.54,8.82s-7.15,3.39-10,4.48a50.76,50.76,0,0,1-10.68,3c-3.27.51-11.09,1-14.79-8.19a13.21,13.21,0,0,1-.79-2.89A13.06,13.06,0,0,1,5.23,34l0,0A13.22,13.22,0,0,1,7.71,28.7a13.7,13.7,0,0,1,2.11-2.13c7.73-6.23,14.3-1.95,16.9.09A50.23,50.23,0,0,1,34.55,34.53Z"/><path class="cls-1" d="M55.73,46.6c-2.92-.81-10.4-3.49-10.41-3.49s3.94-6.88,5.63-9.39a51,51,0,0,1,7-8.6c2.4-2.28,8.52-7.17,16.82-1.73a13.37,13.37,0,0,1,5.31,6.9h0a13.43,13.43,0,0,1,1,5.75,14.48,14.48,0,0,1-.51,3c-3.37,11.54-9.92,9.81-13.92,9.59A50.25,50.25,0,0,1,55.73,46.6Z"/><path class="cls-1" d="M44.4,56.77c-.12-3,.16-11,.16-11s7.75,1.66,10.65,2.51a50.2,50.2,0,0,1,10.33,4.07C68.45,54,75,58.3,72.31,67.86a13.82,13.82,0,0,1-1.12,2.78A13.31,13.31,0,0,1,67.36,75v0a13.27,13.27,0,0,1-5.19,2.65,13.12,13.12,0,0,1-3,.41C49.3,78.37,46.68,71,45.84,67.78A50.83,50.83,0,0,1,44.4,56.77Z"/><path class="cls-1" d="M31.44,49.1c2.85-1,10.5-3.18,10.51-3.18s.78,7.89.85,10.91a51,51,0,0,1-.75,11.08c-.64,3.25-2.79,10.78-12.71,11.15A13.32,13.32,0,0,1,21,76.51l0,0a13.28,13.28,0,0,1-4.1-4.14,13.73,13.73,0,0,1-1.3-2.7c-3.25-9.38,3-14.12,5.8-15.88A50.51,50.51,0,0,1,31.44,49.1Z"/><path class="cls-1" d="M29.69,81.29a10.27,10.27,0,0,1-1.47-.1.74.74,0,0,1-.64-.83.75.75,0,0,1,.84-.64A10.66,10.66,0,0,0,30,79.8a.74.74,0,0,1,0,1.48Zm2.08-.19a.76.76,0,0,1-.73-.62.74.74,0,0,1,.6-.86,13.62,13.62,0,0,0,1.58-.41.76.76,0,0,1,.94.48.74.74,0,0,1-.48.93,11.54,11.54,0,0,1-1.77.46Zm-5.16-.16h-.12c-.69-.1-1.24-.19-1.74-.29A.74.74,0,0,1,25,79.18c.48.09,1,.19,1.68.28a.76.76,0,0,1,.62.86A.74.74,0,0,1,26.61,80.94Zm-3.4-.68a.64.64,0,0,1-.2,0,15.93,15.93,0,0,1-1.73-.6.74.74,0,0,1,.58-1.37,12.23,12.23,0,0,0,1.55.53.75.75,0,0,1-.2,1.47Zm35-.12h0a15.44,15.44,0,0,1-1.8-.17.74.74,0,1,1,.22-1.47,14.91,14.91,0,0,0,1.64.15.75.75,0,0,1,0,1.49Zm1.74,0a.74.74,0,0,1-.05-1.48,15.66,15.66,0,0,0,1.64-.21.75.75,0,0,1,.26,1.47c-.6.1-1.21.18-1.8.22ZM35.06,80a.72.72,0,0,1-.67-.43.76.76,0,0,1,.36-1,12.72,12.72,0,0,0,1.45-.78A.75.75,0,0,1,37,79.09a17.77,17.77,0,0,1-1.6.87A.91.91,0,0,1,35.06,80Zm19.78-.4a.69.69,0,0,1-.2,0A15,15,0,0,1,52.92,79a.74.74,0,0,1-.43-1,.76.76,0,0,1,1-.43,13,13,0,0,0,1.56.52.74.74,0,0,1-.18,1.46Zm8.56-.1a.74.74,0,0,1-.2-1.46q.83-.23,1.59-.51a.75.75,0,0,1,.52,1.4c-.54.2-1.12.38-1.72.55A.62.62,0,0,1,63.4,79.52ZM20,78.9a.67.67,0,0,1-.38-.11,12.82,12.82,0,0,1-1.5-1.07.75.75,0,1,1,1-1.14,10.52,10.52,0,0,0,1.31.94.76.76,0,0,1,.25,1A.77.77,0,0,1,20,78.9Zm31.57-.53a.67.67,0,0,1-.33-.08,16.41,16.41,0,0,1-1.57-.91.74.74,0,0,1-.22-1,.75.75,0,0,1,1-.23,14.83,14.83,0,0,0,1.43.84.74.74,0,0,1-.34,1.4Zm15-.08a.74.74,0,0,1-.34-1.4,12.48,12.48,0,0,0,1.41-.84.74.74,0,0,1,.83,1.23,13.52,13.52,0,0,1-1.57.93A.67.67,0,0,1,66.64,78.29ZM38,78.21a.74.74,0,0,1-.58-.28.73.73,0,0,1,.13-1,13,13,0,0,0,1.25-1.09.75.75,0,0,1,1,0,.74.74,0,0,1,0,1.05,15.57,15.57,0,0,1-1.37,1.19A.72.72,0,0,1,38,78.21ZM17.38,76.69a.78.78,0,0,1-.55-.23,17.64,17.64,0,0,1-1.15-1.41.74.74,0,0,1,1.2-.88,14.84,14.84,0,0,0,1,1.28.74.74,0,0,1,0,1A.73.73,0,0,1,17.38,76.69Zm31.32-.21a.72.72,0,0,1-.46-.16,17.36,17.36,0,0,1-1.35-1.21.74.74,0,0,1,0-1,.75.75,0,0,1,1,0c.39.38.81.75,1.24,1.1a.74.74,0,0,1-.47,1.32Zm20.79-.14a.72.72,0,0,1-.55-.24.73.73,0,0,1,0-1,11.48,11.48,0,0,0,1.13-1.18.75.75,0,1,1,1.14,1A14.52,14.52,0,0,1,70,76.15.72.72,0,0,1,69.49,76.34Zm-29-.53a.75.75,0,0,1-.58-1.22c.2-.24.39-.49.56-.74l.44-.61a.74.74,0,1,1,1.21.85l-.43.62c-.19.27-.41.55-.63.82A.73.73,0,0,1,40.5,75.81Zm5.74-1.75a.74.74,0,0,1-.56-.27c-.3-.34-.55-.64-.77-.91s-.24-.3-.35-.42a.75.75,0,0,1,.09-1,.74.74,0,0,1,1.05.09c.11.13.23.27.36.44s.46.56.74.88a.73.73,0,0,1-.08,1.05A.75.75,0,0,1,46.24,74.06Zm-30.9-.16a.76.76,0,0,1-.65-.38c-.29-.51-.57-1-.82-1.6a.74.74,0,0,1,1.35-.62c.23.51.49,1,.76,1.48a.75.75,0,0,1-.27,1A.86.86,0,0,1,15.34,73.9Zm56.37-.2a.72.72,0,0,1-.4-.12.73.73,0,0,1-.22-1c.28-.46.55-.94.8-1.44a.75.75,0,0,1,1-.35.76.76,0,0,1,.35,1,16.11,16.11,0,0,1-.89,1.58A.73.73,0,0,1,71.71,73.7ZM42.53,73a.73.73,0,0,1-.44-.15.75.75,0,0,1-.15-1,3.59,3.59,0,0,1,1.61-1.45A.74.74,0,1,1,44,71.78c-.07,0-.28.16-.85.92A.74.74,0,0,1,42.53,73ZM13.9,70.75a.74.74,0,0,1-.7-.5,18,18,0,0,1-.51-1.73.74.74,0,0,1,.54-.9.75.75,0,0,1,.9.54c.13.54.29,1.08.47,1.6a.73.73,0,0,1-.45.94A.79.79,0,0,1,13.9,70.75Zm59.33-.16a.8.8,0,0,1-.26,0,.73.73,0,0,1-.44-.94c.18-.52.34-1.06.47-1.59a.75.75,0,0,1,.9-.55.74.74,0,0,1,.54.9,15.67,15.67,0,0,1-.51,1.74A.75.75,0,0,1,73.23,70.59ZM13.07,67.38a.75.75,0,0,1-.74-.63c-.08-.6-.14-1.21-.17-1.8a.74.74,0,0,1,.72-.77.73.73,0,0,1,.77.71,15.37,15.37,0,0,0,.15,1.64.75.75,0,0,1-.62.85Zm61-.16h-.09a.74.74,0,0,1-.65-.83,15.26,15.26,0,0,0,.12-1.65.74.74,0,0,1,.74-.73h0a.74.74,0,0,1,.74.75,15.42,15.42,0,0,1-.13,1.81A.74.74,0,0,1,74,67.22Zm-61.09-3.3h-.06a.73.73,0,0,1-.68-.8,13.15,13.15,0,0,1,.26-1.81.74.74,0,1,1,1.45.32,11.77,11.77,0,0,0-.23,1.61A.74.74,0,0,1,12.94,63.92Zm61.15-.15a.75.75,0,0,1-.74-.68c-.06-.55-.14-1.09-.24-1.64a.74.74,0,0,1,.58-.87.75.75,0,0,1,.88.58c.11.59.2,1.2.26,1.79a.76.76,0,0,1-.68.81ZM13.68,60.55a.65.65,0,0,1-.27,0,.74.74,0,0,1-.42-1,10.74,10.74,0,0,1,.81-1.67.74.74,0,0,1,1.28.76,8.09,8.09,0,0,0-.7,1.45A.76.76,0,0,1,13.68,60.55Zm59.73-.18a.76.76,0,0,1-.71-.53,15.31,15.31,0,0,0-.56-1.56.75.75,0,0,1,1.38-.57,17.14,17.14,0,0,1,.6,1.7.73.73,0,0,1-.49.92A.54.54,0,0,1,73.41,60.37Zm-58-2.78a.75.75,0,0,1-.47-.17.73.73,0,0,1-.11-1c.42-.52.8-1,1.13-1.34a.74.74,0,1,1,1.13,1c-.33.38-.7.81-1.1,1.31A.78.78,0,0,1,15.45,57.59Zm56.64-.42a.74.74,0,0,1-.66-.39,16.1,16.1,0,0,0-.85-1.39.76.76,0,0,1,.18-1,.75.75,0,0,1,1,.17v0a17.09,17.09,0,0,1,.94,1.54.73.73,0,0,1-.31,1A.72.72,0,0,1,72.09,57.17ZM17.64,54.91a.68.68,0,0,1-.36-.1.75.75,0,0,1-.32-.93l-.32-.09a.74.74,0,0,1-.55-.89.75.75,0,0,1,.89-.56c.43.1,1.55.37,1.55,1.39a1.56,1.56,0,0,1-.24.8A.76.76,0,0,1,17.64,54.91Zm52.46-.58a.76.76,0,0,1-.57-.26l-.23-.28c-.3-.35-.6-.71-.89-1.07a.73.73,0,0,1,.11-1,.75.75,0,0,1,1,.11l.86,1,.24.28a.75.75,0,0,1-.09,1A.72.72,0,0,1,70.1,54.33Zm-55-.81H15a17.49,17.49,0,0,1-1.77-.41.74.74,0,1,1,.41-1.43,15,15,0,0,0,1.61.37.74.74,0,0,1-.12,1.47Zm-3.33-1a.75.75,0,0,1-.29-.06,13.67,13.67,0,0,1-1.63-.8.75.75,0,0,1,.73-1.3,12.71,12.71,0,0,0,1.48.73.74.74,0,0,1,.39,1A.72.72,0,0,1,11.78,52.56ZM68,51.6a.73.73,0,0,1-.63-.35,2.14,2.14,0,0,1-.42-1.11,1,1,0,0,1,1-1,.86.86,0,0,1,.22,0l.38,0a.74.74,0,0,1,.67.81.76.76,0,0,1-.52.64.75.75,0,0,1-.33.81A.72.72,0,0,1,68,51.6ZM8.77,50.85a.73.73,0,0,1-.44-.15,14.42,14.42,0,0,1-1.39-1.18.74.74,0,0,1,1-1.07,12.72,12.72,0,0,0,1.25,1.06.74.74,0,0,1-.45,1.34Zm61.42-.09a.74.74,0,0,1,0-1.48,12.68,12.68,0,0,0,1.63-.17A.74.74,0,0,1,72,50.57a13.86,13.86,0,0,1-1.82.19Zm3.41-.59a.74.74,0,0,1-.23-1.45,11.71,11.71,0,0,0,1.52-.6.74.74,0,0,1,.64,1.34,14.16,14.16,0,0,1-1.71.68A.83.83,0,0,1,73.6,50.17Zm3.12-1.49a.77.77,0,0,1-.63-.33.75.75,0,0,1,.21-1,11.28,11.28,0,0,0,1.28-1,.74.74,0,0,1,1,0,.75.75,0,0,1,0,1.05,13.23,13.23,0,0,1-1.46,1.13A.68.68,0,0,1,76.72,48.68ZM6.29,48.44a.72.72,0,0,1-.58-.28,14,14,0,0,1-1-1.51A.74.74,0,0,1,6,45.89a12.44,12.44,0,0,0,.93,1.35.74.74,0,0,1-.13,1A.72.72,0,0,1,6.29,48.44Zm73-2.08a.72.72,0,0,1-.47-.17.75.75,0,0,1-.1-1,9.61,9.61,0,0,0,1-1.32.75.75,0,0,1,1-.24.76.76,0,0,1,.24,1,14.7,14.7,0,0,1-1.07,1.48A.74.74,0,0,1,79.27,46.36ZM4.54,45.47A.76.76,0,0,1,3.85,45c-.13-.32-.26-.66-.36-1s-.16-.48-.23-.72a.75.75,0,0,1,.5-.93.74.74,0,0,1,.92.5c.07.23.14.46.22.68s.2.6.33.89a.76.76,0,0,1-.41,1A.71.71,0,0,1,4.54,45.47Zm76.56-2a.7.7,0,0,1-.31-.07.74.74,0,0,1-.36-1l.36-.87c.08-.22.16-.45.23-.67a.74.74,0,0,1,.94-.47.73.73,0,0,1,.47.93c-.08.25-.16.49-.26.74s-.25.64-.39,1A.75.75,0,0,1,81.1,43.43ZM3.54,42.15a.76.76,0,0,1-.73-.59c-.12-.59-.23-1.18-.3-1.77A.74.74,0,1,1,4,39.6c.07.54.17,1.1.29,1.65a.74.74,0,0,1-.57.88Zm78.65-2a.47.47,0,0,1-.16,0,.74.74,0,0,1-.56-.89c.12-.53.22-1.09.3-1.63A.73.73,0,0,1,82.6,37a.74.74,0,0,1,.64.83c-.08.6-.19,1.19-.32,1.78A.74.74,0,0,1,82.19,40.14ZM3.09,38.71A.75.75,0,0,1,2.35,38c0-.27,0-.54,0-.81s0-.66,0-1a.73.73,0,0,1,.78-.7.75.75,0,0,1,.71.78c0,.3,0,.61,0,.91s0,.5,0,.75a.75.75,0,0,1-.72.77Zm79.56-2h0a.74.74,0,0,1-.71-.77c0-.23,0-.46,0-.69s0-.65,0-1a.74.74,0,1,1,1.48-.08c0,.35,0,.71,0,1.06s0,.5,0,.75A.75.75,0,0,1,82.65,36.71ZM3.29,35.26H3.17a.75.75,0,0,1-.62-.85,17.61,17.61,0,0,1,.39-1.78.75.75,0,0,1,.91-.52.74.74,0,0,1,.52.92A16.39,16.39,0,0,0,4,34.63.74.74,0,0,1,3.29,35.26Zm79.17-2a.73.73,0,0,1-.73-.63c-.09-.54-.2-1.09-.34-1.62a.74.74,0,1,1,1.44-.37,16.8,16.8,0,0,1,.36,1.77.75.75,0,0,1-.62.85ZM4.21,31.93a.75.75,0,0,1-.68-1,13.75,13.75,0,0,1,.79-1.64.74.74,0,1,1,1.3.72,14.41,14.41,0,0,0-.72,1.48A.74.74,0,0,1,4.21,31.93Zm77.38-2a.75.75,0,0,1-.7-.49c-.2-.51-.42-1-.66-1.5a.74.74,0,1,1,1.32-.68,15.45,15.45,0,0,1,.73,1.66.75.75,0,0,1-.43,1A.85.85,0,0,1,81.59,29.91Zm-75.69-1a.75.75,0,0,1-.44-.15.74.74,0,0,1-.16-1,15.5,15.5,0,0,1,1.16-1.41.74.74,0,0,1,1.09,1,13.86,13.86,0,0,0-1,1.27A.74.74,0,0,1,5.9,28.91ZM80,26.83a.76.76,0,0,1-.62-.33,11.62,11.62,0,0,0-1-1.31.74.74,0,0,1,1.13-1,14.61,14.61,0,0,1,1.11,1.45.75.75,0,0,1-.2,1A.76.76,0,0,1,80,26.83ZM8.25,26.36a.72.72,0,0,1-.56-.25.74.74,0,0,1,.07-1.05c.45-.39.93-.76,1.42-1.12a.76.76,0,0,1,1,.18.75.75,0,0,1-.18,1c-.46.32-.9.67-1.31,1A.74.74,0,0,1,8.25,26.36Zm19.23-.76a.75.75,0,0,1-.06-1.49.74.74,0,0,0,0-.18c0-.09,0-.19,0-.3a.13.13,0,0,1,0-.06c-.24-.54-.45-1.09-.63-1.63a.74.74,0,1,1,1.41-.47c.17.51.37,1,.6,1.55a.84.84,0,0,1,.07.26l0,.13a4.73,4.73,0,0,1,0,.52A1.47,1.47,0,0,1,27.48,25.6ZM25.89,25a.7.7,0,0,1-.37-.11c-.56-.32-1-.58-1.48-.8a.74.74,0,1,1,.65-1.33c.48.23,1,.51,1.57.85a.73.73,0,0,1,.27,1A.74.74,0,0,1,25.89,25Zm-14.81-.59a.76.76,0,0,1-.65-.38.74.74,0,0,1,.28-1c.53-.3,1.08-.57,1.62-.81a.75.75,0,0,1,.59,1.37,14.5,14.5,0,0,0-1.48.73A.7.7,0,0,1,11.08,24.37Zm66.66-.16a.69.69,0,0,1-.49-.19A15.6,15.6,0,0,0,76,23a.75.75,0,0,1-.18-1,.74.74,0,0,1,1-.17,12.9,12.9,0,0,1,1.43,1.13.74.74,0,0,1-.5,1.29ZM57.19,24a1.3,1.3,0,0,1-.68-.18.74.74,0,0,1,.7-1.31,2.32,2.32,0,0,0,.86-.42.74.74,0,0,1,1,.2.75.75,0,0,1-.2,1A3.34,3.34,0,0,1,57.19,24Zm-34.42-.57a.79.79,0,0,1-.25-.05A13.78,13.78,0,0,0,21,23a.74.74,0,1,1,.31-1.45A13.34,13.34,0,0,1,23,22a.74.74,0,0,1,.46.94A.75.75,0,0,1,22.77,23.45ZM14.26,23a.76.76,0,0,1-.72-.54.75.75,0,0,1,.51-.92,13.11,13.11,0,0,1,1.79-.4.74.74,0,0,1,.22,1.47,9.53,9.53,0,0,0-1.59.36A.76.76,0,0,1,14.26,23Zm5.14-.31h-.09c-.45-.05-.93-.11-1.5-.15l-.17,0A.74.74,0,1,1,17.71,21l.23,0c.58.05,1.09.1,1.55.16a.74.74,0,0,1,.65.83A.75.75,0,0,1,19.4,22.7ZM60,22.56a.73.73,0,0,1-.65-.39.74.74,0,0,1,.29-1,16.16,16.16,0,0,1,1.62-.79.75.75,0,0,1,1,.39.73.73,0,0,1-.39,1c-.51.22-1,.47-1.49.73A.7.7,0,0,1,60,22.56Zm-3.34-.25h-.11a.74.74,0,0,1-.63-.84c0-.22.07-.45.12-.71s.14-.68.2-1a.74.74,0,0,1,1.46.26c0,.32-.12.67-.2,1.07a5.29,5.29,0,0,0-.11.61A.73.73,0,0,1,56.62,22.31Zm18.3-.09a.77.77,0,0,1-.36-.09,13.42,13.42,0,0,0-1.49-.69.74.74,0,1,1,.55-1.38,16.42,16.42,0,0,1,1.65.76.75.75,0,0,1,.3,1A.73.73,0,0,1,74.92,22.22Zm-11.78-1a.75.75,0,0,1-.22-1.46,18.1,18.1,0,0,1,1.76-.44A.74.74,0,0,1,65,20.76a15.14,15.14,0,0,0-1.61.4A.57.57,0,0,1,63.14,21.2ZM71.7,21a.58.58,0,0,1-.19,0,12.54,12.54,0,0,0-1.62-.32.75.75,0,0,1-.63-.84.74.74,0,0,1,.84-.63,15.72,15.72,0,0,1,1.79.35.76.76,0,0,1,.53.91A.75.75,0,0,1,71.7,21ZM27,20.78a.76.76,0,0,1-.73-.58c-.13-.6-.23-1.2-.3-1.79a.75.75,0,0,1,.67-.82.74.74,0,0,1,.81.66,15.82,15.82,0,0,0,.27,1.63.74.74,0,0,1-.56.88Zm39.52-.25a.74.74,0,0,1-.06-1.48A15.57,15.57,0,0,1,68.29,19a.74.74,0,0,1,0,1.48,15.17,15.17,0,0,0-1.65.06Zm-9.38-1.64H57.1a.73.73,0,0,1-.68-.8c0-.34,0-.67,0-1s0-.42,0-.63a.74.74,0,0,1,.7-.78.75.75,0,0,1,.79.7c0,.23,0,.47,0,.71s0,.74-.05,1.12A.74.74,0,0,1,57.16,18.89Zm-30.5-1.55h0a.75.75,0,0,1-.73-.76,13.68,13.68,0,0,1,.16-1.82.73.73,0,0,1,.84-.62.74.74,0,0,1,.63.84,12.5,12.5,0,0,0-.14,1.63A.74.74,0,0,1,26.66,17.34ZM57,15.44a.74.74,0,0,1-.73-.59,12.9,12.9,0,0,0-.43-1.58.74.74,0,0,1,.47-.94.73.73,0,0,1,.94.46,14,14,0,0,1,.47,1.76.74.74,0,0,1-.57.88ZM27.18,13.92l-.21,0a.75.75,0,0,1-.51-.92,14.77,14.77,0,0,1,.64-1.72.75.75,0,0,1,1-.37.74.74,0,0,1,.37,1,10.86,10.86,0,0,0-.57,1.53A.75.75,0,0,1,27.18,13.92Zm28.69-1.76a.73.73,0,0,1-.68-.44c-.17-.38-.35-.77-.56-1.16-.05-.11-.11-.22-.17-.33a.73.73,0,0,1,.28-1,.74.74,0,0,1,1,.27l.21.39c.21.42.41.83.59,1.24a.75.75,0,0,1-.38,1A.8.8,0,0,1,55.87,12.16ZM28.6,10.77a.79.79,0,0,1-.39-.11.75.75,0,0,1-.24-1A15,15,0,0,1,29,8.15a.75.75,0,0,1,1.15.95,12,12,0,0,0-1,1.32A.73.73,0,0,1,28.6,10.77Zm25.53-1.6a.74.74,0,0,1-.58-.28,12.92,12.92,0,0,0-1.09-1.23.75.75,0,0,1,0-1.06.73.73,0,0,1,1,0A14.28,14.28,0,0,1,54.71,8a.74.74,0,0,1-.58,1.2ZM30.8,8.1a.74.74,0,0,1-.51-1.28,14.2,14.2,0,0,1,1.38-1.17.74.74,0,0,1,.9,1.18A14.77,14.77,0,0,0,31.31,7.9.78.78,0,0,1,30.8,8.1ZM51.67,6.74a.79.79,0,0,1-.44-.14L51,6.44a12.22,12.22,0,0,0-1.16-.69.74.74,0,0,1,.69-1.32,14.9,14.9,0,0,1,1.3.78l.27.18a.75.75,0,0,1-.44,1.35ZM33.56,6a.74.74,0,0,1-.38-1.38,13.59,13.59,0,0,1,1.61-.83.74.74,0,0,1,.61,1.35,14.39,14.39,0,0,0-1.46.76A.75.75,0,0,1,33.56,6Zm15.06-.9a.66.66,0,0,1-.27-.06c-.51-.2-1-.37-1.57-.53a.74.74,0,0,1-.52-.92.76.76,0,0,1,.92-.51c.59.17,1.16.37,1.72.58a.76.76,0,0,1,.41,1A.74.74,0,0,1,48.62,5.11Zm-11.9-.5a.75.75,0,0,1-.23-1.46,16.79,16.79,0,0,1,1.76-.45.74.74,0,0,1,.29,1.46c-.54.11-1.08.25-1.6.41A.85.85,0,0,1,36.72,4.61Zm8.57-.46h-.13c-.55-.1-1.1-.18-1.65-.23a.74.74,0,1,1,.13-1.48c.6.06,1.2.14,1.79.25a.74.74,0,0,1-.14,1.47Zm-5.18-.23A.74.74,0,0,1,40,2.44a17.93,17.93,0,0,1,1.8-.09h0a.75.75,0,1,1,0,1.49c-.56,0-1.11,0-1.66.08Z"/><path class="cls-1" d="M28.8,83.14h0c-.58,0-1.18,0-1.78-.09a.75.75,0,0,1-.68-.8.73.73,0,0,1,.8-.68c.57,0,1.14.07,1.69.08a.75.75,0,0,1,0,1.49Zm1.73,0a.75.75,0,0,1-.74-.7.74.74,0,0,1,.7-.78c.57,0,1.13-.1,1.66-.17a.74.74,0,0,1,.84.62.72.72,0,0,1-.62.84,16.91,16.91,0,0,1-1.79.19Zm-5.18-.25h-.11a17.86,17.86,0,0,1-1.77-.35.73.73,0,0,1-.54-.9.75.75,0,0,1,.9-.54,15.63,15.63,0,0,0,1.63.32.74.74,0,0,1,.62.85A.73.73,0,0,1,25.35,82.85ZM34,82.58a.74.74,0,0,1-.72-.56.73.73,0,0,1,.52-.9,12.06,12.06,0,0,0,1.54-.54.77.77,0,0,1,1,.4.76.76,0,0,1-.39,1,14.8,14.8,0,0,1-1.74.59Zm24-.13h0c-.59,0-1.19,0-1.78-.1a.75.75,0,0,1,.14-1.49c.55.06,1.12.09,1.68.1a.76.76,0,0,1,.73.77A.74.74,0,0,1,58,82.45Zm1.74,0a.73.73,0,0,1-.74-.71A.75.75,0,0,1,59.7,81q.86,0,1.68-.12a.74.74,0,0,1,.16,1.48c-.58.06-1.18.11-1.78.13Zm-5.19-.31-.12,0a17.64,17.64,0,0,1-1.76-.36.75.75,0,0,1-.53-.91.73.73,0,0,1,.9-.53c.51.13,1.06.25,1.64.34a.75.75,0,0,1-.13,1.48Zm8.63-.08A.74.74,0,0,1,63,80.58a13.64,13.64,0,0,0,1.59-.41.75.75,0,0,1,.46,1.42c-.55.17-1.14.32-1.76.45ZM22,82a.74.74,0,0,1-.25,0c-.57-.2-1.13-.43-1.67-.68a.75.75,0,0,1-.36-1,.74.74,0,0,1,1-.36,15,15,0,0,0,1.54.63A.75.75,0,0,1,22,82Zm15.15-.79a.75.75,0,0,1-.66-.4.74.74,0,0,1,.31-1l.46-.24c.35-.18.68-.34,1-.55a.74.74,0,0,1,.77,1.27c-.4.24-.77.43-1.13.61l-.44.22A.69.69,0,0,1,37.14,81.23Zm14.09-.07a.72.72,0,0,1-.32-.08,12.3,12.3,0,0,1-1.59-.92.73.73,0,0,1-.21-1,.74.74,0,0,1,1-.2,12.07,12.07,0,0,0,1.41.81.75.75,0,0,1,.35,1A.76.76,0,0,1,51.23,81.16ZM66.46,81a.75.75,0,0,1-.34-1.42,14.41,14.41,0,0,0,1.44-.81.74.74,0,0,1,1,.23.73.73,0,0,1-.23,1,17.18,17.18,0,0,1-1.57.89A.68.68,0,0,1,66.46,81Zm-47.6-.44a.79.79,0,0,1-.39-.11,17.19,17.19,0,0,1-1.5-1,.75.75,0,0,1,.91-1.18,16.28,16.28,0,0,0,1.36.93.75.75,0,0,1,.26,1A.73.73,0,0,1,18.86,80.54ZM40.07,79.4a.76.76,0,0,1-.57-.26.75.75,0,0,1,.09-1c.39-.32.79-.69,1.23-1.13a.74.74,0,0,1,1,1.05c-.48.48-.91.87-1.33,1.22A.68.68,0,0,1,40.07,79.4Zm8.27-.15a.73.73,0,0,1-.47-.17c-.45-.38-.9-.79-1.33-1.23a.74.74,0,0,1,1.06-1,15.85,15.85,0,0,0,1.22,1.12.75.75,0,0,1,.09,1A.71.71,0,0,1,48.34,79.25Zm21-.13a.74.74,0,0,1-.46-1.33c.43-.34.86-.7,1.26-1.08a.74.74,0,0,1,1,0,.73.73,0,0,1,0,1A15.47,15.47,0,0,1,69.83,79,.69.69,0,0,1,69.38,79.12Zm-53.26-.7a.75.75,0,0,1-.52-.21,14.27,14.27,0,0,1-1.22-1.36.74.74,0,0,1,1.17-.92,11.44,11.44,0,0,0,1.09,1.22.74.74,0,0,1,0,1A.73.73,0,0,1,16.12,78.42ZM42.51,77a.73.73,0,0,1-.6-1.17c.22-.32.4-.64.56-.92s.21-.38.32-.54a.74.74,0,0,1,1-.22.8.8,0,0,1,.28.35.73.73,0,0,1,.17-.26.74.74,0,0,1,1,0A8.69,8.69,0,0,1,46,75q.24.32.48.6a.73.73,0,0,1-.09,1,.74.74,0,0,1-1.05-.08l-.51-.65c-.21-.27-.4-.48-.55-.64A.7.7,0,0,1,44.1,75a1,1,0,0,1-.07.15c-.08.11-.16.27-.26.44a10.81,10.81,0,0,1-.66,1.06A.72.72,0,0,1,42.51,77Zm29.38-.21a.74.74,0,0,1-.56-1.24c.36-.41.71-.85,1-1.3a.74.74,0,0,1,1.2.87c-.35.49-.73,1-1.12,1.41A.74.74,0,0,1,71.89,76.74ZM14,75.72a.74.74,0,0,1-.62-.34c-.32-.5-.63-1-.91-1.54a.74.74,0,1,1,1.3-.71c.27.49.55,1,.86,1.44A.75.75,0,0,1,14,75.72Zm60-1.79a.73.73,0,0,1-.63-1.12c.28-.48.54-1,.79-1.47a.74.74,0,0,1,1-.35.76.76,0,0,1,.35,1c-.26.54-.55,1.07-.86,1.58A.75.75,0,0,1,73.92,73.93Zm-61.6-1.26a.75.75,0,0,1-.68-.45c-.24-.55-.45-1.12-.64-1.68a.74.74,0,0,1,1.41-.47c.18.53.38,1.05.59,1.56a.74.74,0,0,1-.38,1A.8.8,0,0,1,12.32,72.67Zm63.11-1.86a.63.63,0,0,1-.26,0,.73.73,0,0,1-.43-1,12,12,0,0,0,.45-1.43l0-.14a.75.75,0,0,1,.9-.55.75.75,0,0,1,.55.9l0,.16a14.76,14.76,0,0,1-.5,1.58A.75.75,0,0,1,75.43,70.81ZM11.24,69.38a.75.75,0,0,1-.73-.57q-.19-.89-.33-1.77a.75.75,0,0,1,1.48-.21,15.25,15.25,0,0,0,.3,1.64.74.74,0,0,1-.56.89A.44.44,0,0,1,11.24,69.38Zm65.05-1.92h-.12a.75.75,0,0,1-.61-.86,16.12,16.12,0,0,0,.2-1.65.75.75,0,0,1,.8-.69.74.74,0,0,1,.68.8c0,.58-.11,1.18-.21,1.78A.75.75,0,0,1,76.29,67.46ZM10.77,66a.75.75,0,0,1-.75-.71c0-.27,0-.54,0-.8s0-.67,0-1a.75.75,0,0,1,.78-.7.76.76,0,0,1,.71.78q0,.47,0,.93c0,.24,0,.49,0,.73a.74.74,0,0,1-.71.78Zm65.78-2a.74.74,0,0,1-.75-.72,15.08,15.08,0,0,0-.13-1.65.73.73,0,0,1,.63-.83.74.74,0,0,1,.84.63,15.41,15.41,0,0,1,.14,1.81.73.73,0,0,1-.72.76ZM11,62.49h-.11a.75.75,0,0,1-.62-.86,17.36,17.36,0,0,1,.37-1.77.75.75,0,0,1,1.44.39,13.92,13.92,0,0,0-.34,1.61A.75.75,0,0,1,11,62.49Zm65.12-1.91a.76.76,0,0,1-.72-.56c-.14-.52-.3-1.05-.49-1.59a.74.74,0,0,1,1.39-.5,16.23,16.23,0,0,1,.54,1.72.75.75,0,0,1-.54.91ZM11.85,59.16a.94.94,0,0,1-.28-.06.75.75,0,0,1-.41-1A10.72,10.72,0,0,1,12,56.47a.74.74,0,1,1,1.26.78,10.17,10.17,0,0,0-.72,1.44A.75.75,0,0,1,11.85,59.16Zm63-1.83a.76.76,0,0,1-.68-.43c-.22-.48-.47-1-.76-1.5a.74.74,0,1,1,1.3-.72c.31.56.57,1.08.81,1.59a.73.73,0,0,1-.36,1A.71.71,0,0,1,74.89,57.33ZM13.66,56.21a.72.72,0,0,1-.48-.17.75.75,0,0,1-.09-1l.22-.26c.1-.12.22-.26.25-.31a.62.62,0,0,0-.05.38l.09-.4.17-.73c.55.14,1.22.29,1.22,1,0,.38-.21.62-.55,1l-.21.25A.72.72,0,0,1,13.66,56.21Zm-1.73-1.55a.85.85,0,0,1-.23,0h0c-.55-.2-1.11-.42-1.64-.67a.75.75,0,0,1-.36-1,.76.76,0,0,1,1-.36,13.08,13.08,0,0,0,1.5.61.75.75,0,0,1,.47.95A.71.71,0,0,1,11.93,54.66Zm61.31-.38a.73.73,0,0,1-.64-.37l-.3-.49a1.62,1.62,0,0,0-.55-.58.75.75,0,0,1,.75-1.29A.72.72,0,0,1,73,51c.47-.15,1-.33,1.59-.55a.74.74,0,1,1,.52,1.39q-.91.34-1.68.57h0c.06.09.12.17.17.26s.2.33.31.51a.74.74,0,0,1-.26,1A.79.79,0,0,1,73.24,54.28ZM8.8,53.18a.72.72,0,0,1-.39-.11,14.77,14.77,0,0,1-1.49-1,.74.74,0,0,1,.92-1.17,15.63,15.63,0,0,0,1.35,1,.74.74,0,0,1-.39,1.37Zm67.68-2a.74.74,0,0,1-.29-1.42,12.31,12.31,0,0,0,1.45-.74.74.74,0,0,1,.77,1.27,13.28,13.28,0,0,1-1.64.84A.71.71,0,0,1,76.48,51.21ZM6.09,51.05a.79.79,0,0,1-.53-.22c-.42-.43-.83-.88-1.21-1.35a.73.73,0,0,1,.11-1,.74.74,0,0,1,1,.1,14.49,14.49,0,0,0,1.11,1.23.74.74,0,0,1,0,1A.71.71,0,0,1,6.09,51.05Zm73.34-1.63A.74.74,0,0,1,79,48.11,9.44,9.44,0,0,0,80.11,47a.74.74,0,1,1,1.12,1,12.36,12.36,0,0,1-1.32,1.29A.72.72,0,0,1,79.43,49.42ZM3.91,48.35A.77.77,0,0,1,3.28,48q-.48-.75-.9-1.56a.74.74,0,1,1,1.31-.69,15.34,15.34,0,0,0,.84,1.43.74.74,0,0,1-.22,1A.65.65,0,0,1,3.91,48.35Zm77.81-1.52a.7.7,0,0,1-.41-.12.74.74,0,0,1-.21-1,13.83,13.83,0,0,0,.81-1.42.75.75,0,1,1,1.34.66,14.17,14.17,0,0,1-.91,1.58A.73.73,0,0,1,81.72,46.83ZM2.3,45.29a.74.74,0,0,1-.68-.46A17.8,17.8,0,0,1,1,43.14a.74.74,0,1,1,1.41-.45c.17.53.37,1.06.58,1.57a.74.74,0,0,1-.41,1A.67.67,0,0,1,2.3,45.29Zm81-1.55a.6.6,0,0,1-.26-.05.74.74,0,0,1-.43-1c.19-.49.36-1,.53-1.58a.74.74,0,1,1,1.42.41c-.17.6-.36,1.17-.56,1.7A.75.75,0,0,1,83.27,43.74ZM1.24,42a.74.74,0,0,1-.72-.57c-.14-.59-.25-1.18-.34-1.77a.75.75,0,0,1,1.48-.21A16.2,16.2,0,0,0,2,41.08a.73.73,0,0,1-.55.89Zm83-1.57-.17,0a.74.74,0,0,1-.55-.89l.28-1.3.06-.36a.75.75,0,0,1,1.47.26c0,.13,0,.26-.08.39-.1.48-.19.92-.29,1.35A.74.74,0,0,1,84.26,40.42ZM.76,38.56A.74.74,0,0,1,0,37.85c0-.27,0-.54,0-.8s0-.67,0-1a.74.74,0,1,1,1.48.09c0,.3,0,.61,0,.92s0,.49,0,.73a.75.75,0,0,1-.71.78ZM84.84,37h-.06a.75.75,0,0,1-.69-.8c0-.42,0-.86,0-1.29v-.37a.75.75,0,0,1,1.49,0v.4c0,.47,0,.94,0,1.41A.74.74,0,0,1,84.84,37ZM1,35.11l-.11,0a.74.74,0,0,1-.62-.85,17.94,17.94,0,0,1,.37-1.77A.75.75,0,0,1,2,32.86a14.55,14.55,0,0,0-.34,1.62A.76.76,0,0,1,1,35.11Zm83.81-1.57a.74.74,0,0,1-.74-.65,14.61,14.61,0,0,0-.29-1.63.76.76,0,0,1,.57-.89.75.75,0,0,1,.89.56c.13.59.23,1.19.31,1.78a.75.75,0,0,1-.65.83ZM1.84,31.76a.58.58,0,0,1-.26-.05.73.73,0,0,1-.43-1,15.06,15.06,0,0,1,.73-1.65.72.72,0,0,1,1-.33.74.74,0,0,1,.33,1c-.24.49-.47,1-.66,1.51A.75.75,0,0,1,1.84,31.76ZM84,30.17a.76.76,0,0,1-.7-.51,13.8,13.8,0,0,0-.6-1.55.75.75,0,0,1,.38-1,.74.74,0,0,1,1,.38,14.23,14.23,0,0,1,.65,1.68.74.74,0,0,1-.47.94A1,1,0,0,1,84,30.17Zm-80.6-1.5A.71.71,0,0,1,3,28.55a.73.73,0,0,1-.23-1c.32-.51.67-1,1-1.48a.75.75,0,0,1,1.05-.12A.73.73,0,0,1,5,27q-.51.66-1,1.35A.73.73,0,0,1,3.39,28.67ZM82.59,27a.72.72,0,0,1-.64-.37c-.28-.49-.58-.95-.9-1.4a.74.74,0,1,1,1.21-.86,15,15,0,0,1,1,1.52.75.75,0,0,1-.27,1A.81.81,0,0,1,82.59,27ZM5.53,26A.73.73,0,0,1,5,25.74a.74.74,0,0,1,0-1c.41-.43.85-.85,1.3-1.25a.74.74,0,0,1,1,1.12c-.42.37-.82.76-1.2,1.15A.73.73,0,0,1,5.53,26Zm75.05-1.76a.77.77,0,0,1-.56-.25,14.25,14.25,0,0,0-1.16-1.17.75.75,0,0,1-.06-1.05.74.74,0,0,1,1-.06A15.59,15.59,0,0,1,81.13,23,.73.73,0,0,1,81.07,24,.77.77,0,0,1,80.58,24.19ZM8.13,23.66a.78.78,0,0,1-.6-.3.75.75,0,0,1,.16-1c.4-.3.82-.59,1.25-.86l.24-.15A.74.74,0,0,1,10,22.58l-.21.13c-.4.26-.79.53-1.17.8A.71.71,0,0,1,8.13,23.66ZM25,22.11a2.86,2.86,0,0,1-.53-.06.76.76,0,0,1-.58-.89.73.73,0,0,1,.48-.54l0-.06L25.72,20a3.27,3.27,0,0,1,.33,1.13,1,1,0,0,1-1.05,1Zm-13.9-.23a.75.75,0,0,1-.31-1.43,16.67,16.67,0,0,1,1.71-.64.74.74,0,0,1,.44,1.42,14.29,14.29,0,0,0-1.54.58A.82.82,0,0,1,11.1,21.88Zm66.91,0a.82.82,0,0,1-.45-.14c-.46-.34-.92-.66-1.38-.94a.73.73,0,0,1-.24-1,.75.75,0,0,1,1-.25c.49.31,1,.64,1.49,1a.74.74,0,0,1,.15,1A.72.72,0,0,1,78,21.87Zm-55-.31a.91.91,0,0,1-.23,0c-.53-.17-1.07-.32-1.61-.45a.74.74,0,1,1,.33-1.44c.58.13,1.16.29,1.74.47A.74.74,0,0,1,23,21.56Zm-8.56-.71a.74.74,0,0,1-.13-1.47,13.36,13.36,0,0,1,1.81-.21.73.73,0,0,1,.78.69.74.74,0,0,1-.69.79,14.69,14.69,0,0,0-1.64.19Zm5.18-.06h-.1c-.55-.07-1.11-.12-1.66-.15a.74.74,0,1,1,.07-1.48c.59,0,1.19.08,1.79.16a.75.75,0,0,1,.64.84A.74.74,0,0,1,19.58,20.79Zm40.49-.29a.74.74,0,0,1-.69-.47.72.72,0,0,1,0-.5h-.21a.76.76,0,0,1-.66-.83c0-.08,0-.16,0-.26.07-.47.12-.95.16-1.42a.74.74,0,0,1,1.48.09A13.8,13.8,0,0,1,60,18.68a1.23,1.23,0,0,1,0,.2c0,.05,0,.09,0,.13.24-.12.56-.31.89-.5l.38-.23A.74.74,0,0,1,62,19.57l-.36.22a9.11,9.11,0,0,1-1.26.66A.65.65,0,0,1,60.07,20.5Zm15-.43a.71.71,0,0,1-.32-.07,14.48,14.48,0,0,0-1.53-.63.74.74,0,1,1,.49-1.4,16.05,16.05,0,0,1,1.68.69.74.74,0,0,1,.35,1A.75.75,0,0,1,75.05,20.07Zm-50.58-.69a.76.76,0,0,1-.72-.56A9.25,9.25,0,0,1,23.49,17,.74.74,0,1,1,25,16.9a7.52,7.52,0,0,0,.22,1.55.74.74,0,0,1-.54.91ZM63.16,19a.74.74,0,0,1-.72-.56.75.75,0,0,1,.55-.9l.25,0c.53-.09,1.05-.16,1.56-.22a.75.75,0,0,1,.82.66.75.75,0,0,1-.65.82l-1.5.2-.13,0A.55.55,0,0,1,63.16,19Zm8.62,0a.41.41,0,0,1-.16,0c-.53-.11-1.08-.21-1.64-.27a.76.76,0,0,1-.65-.83.74.74,0,0,1,.83-.65,16.94,16.94,0,0,1,1.78.3.74.74,0,0,1-.16,1.47Zm-5.17-.38a.75.75,0,0,1-.74-.71.72.72,0,0,1,.7-.77c.62,0,1.21,0,1.79,0a.74.74,0,1,1,0,1.48c-.54,0-1.1,0-1.67,0Zm-7.17-2.47a.75.75,0,0,1-.74-.71,14.51,14.51,0,0,0-.18-1.63.74.74,0,0,1,.61-.86.73.73,0,0,1,.85.6,15.9,15.9,0,0,1,.2,1.81.73.73,0,0,1-.7.78ZM24.34,16h-.12a.75.75,0,0,1-.61-.86l0-.11c.09-.52.18-1.06.29-1.62a.74.74,0,0,1,1.46.29c-.11.54-.2,1.07-.29,1.58l0,.11A.74.74,0,0,1,24.34,16Zm34.51-3.34a.75.75,0,0,1-.71-.53,14.07,14.07,0,0,0-.57-1.53A.74.74,0,1,1,58.92,10a14.62,14.62,0,0,1,.64,1.71.75.75,0,0,1-.49.93A.83.83,0,0,1,58.85,12.68Zm-33.79,0-.21,0a.75.75,0,0,1-.5-.93A13.75,13.75,0,0,1,25,10a.74.74,0,0,1,1-.38.72.72,0,0,1,.38,1,16.38,16.38,0,0,0-.56,1.54A.74.74,0,0,1,25.06,12.63ZM57.44,9.52a.73.73,0,0,1-.64-.36,14.75,14.75,0,0,0-.93-1.35.76.76,0,0,1,.13-1,.74.74,0,0,1,1,.14,13.21,13.21,0,0,1,1,1.49.74.74,0,0,1-.25,1A.72.72,0,0,1,57.44,9.52Zm-31,0a.69.69,0,0,1-.39-.12.75.75,0,0,1-.25-1,15.1,15.1,0,0,1,1.07-1.49A.74.74,0,0,1,28,7.78a13,13,0,0,0-.95,1.33A.74.74,0,0,1,26.46,9.47ZM55.32,6.79a.74.74,0,0,1-.53-.23,14.46,14.46,0,0,0-1.22-1.12.76.76,0,0,1-.09-1.05.74.74,0,0,1,1.05-.09,17.14,17.14,0,0,1,1.32,1.23.74.74,0,0,1,0,1A.75.75,0,0,1,55.32,6.79Zm-26.68,0a.74.74,0,0,1-.52-1.27,17.54,17.54,0,0,1,1.36-1.19.76.76,0,0,1,1.05.12.75.75,0,0,1-.13,1c-.44.35-.86.72-1.25,1.09A.76.76,0,0,1,28.64,6.78Zm2.71-2.15a.73.73,0,0,1-.62-.33.73.73,0,0,1,.21-1l.75-.48c.25-.16.52-.31.78-.46a.75.75,0,0,1,1,.3.74.74,0,0,1-.3,1l-.71.41c-.25.15-.48.31-.71.46A.78.78,0,0,1,31.35,4.63Zm21.32-.07a.79.79,0,0,1-.42-.12,14.48,14.48,0,0,0-1.42-.86.74.74,0,0,1,.7-1.31c.54.29,1.06.6,1.55.93a.75.75,0,0,1,.2,1A.74.74,0,0,1,52.67,4.56ZM34.39,3a.74.74,0,0,1-.29-1.43c.55-.22,1.12-.43,1.7-.61a.74.74,0,0,1,.93.49.75.75,0,0,1-.49.93,15.13,15.13,0,0,0-1.56.56A.79.79,0,0,1,34.39,3Zm15.22,0a.92.92,0,0,1-.28-.05,16.21,16.21,0,0,0-1.57-.56A.74.74,0,0,1,48.2.9c.57.17,1.15.38,1.7.6a.74.74,0,0,1-.29,1.43ZM37.69,2A.74.74,0,0,1,37,1.36a.73.73,0,0,1,.57-.88c.58-.13,1.17-.23,1.77-.31a.74.74,0,0,1,.83.65.74.74,0,0,1-.64.83c-.56.07-1.11.17-1.65.28Zm8.61,0-.15,0q-.81-.16-1.65-.27a.75.75,0,0,1-.65-.82.74.74,0,0,1,.83-.65c.6.07,1.19.17,1.77.29a.75.75,0,0,1,.58.88A.74.74,0,0,1,46.3,1.92Zm-5.17-.41A.73.73,0,0,1,40.39.8.75.75,0,0,1,41.1,0l1,0h0l.82,0a.75.75,0,0,1,.72.77.75.75,0,0,1-.78.71h-.77c-.3,0-.6,0-.9,0Z"/></g></g></svg>