<?xml version="1.0" encoding="utf-8"?>
<!-- Generator: Adobe Illustrator 25.0.0, SVG Export Plug-In . SVG Version: 6.00 Build 0)  -->
<svg version="1.1" id="圖層_1" xmlns="http://www.w3.org/2000/svg" xmlns:xlink="http://www.w3.org/1999/xlink" x="0px" y="0px"
	 viewBox="0 0 141.7 141.7" style="enable-background:new 0 0 141.7 141.7;" xml:space="preserve">
<style type="text/css">
	.st0{fill:#0B318F;}
	.st1{fill:#4560AB;}
	.st2{fill-rule:evenodd;clip-rule:evenodd;fill:#4560AB;}
</style>
<g>
	<path class="st0" d="M53.3,50.6c-1.7,2.5-6.5,8.8-6.5,8.9c0,0-5.4-5.8-7.2-8.2c-2.3-2.9-4.4-5.9-6.1-9.3c-1.4-3-4.3-10.3,3.4-16.6
		c0.8-0.6,1.6-1.2,2.5-1.6c1.8-0.9,3.7-1.3,5.7-1.4l0,0c1.9-0.1,3.9,0.1,5.8,0.8c0.9,0.4,1.8,0.8,2.7,1.4c8.2,5.5,6.1,13.1,4.9,16.2
		C57.2,44.3,55.4,47.4,53.3,50.6z"/>
	<path class="st0" d="M38.3,52.2c1.9,2.3,6.5,8.8,6.5,8.8c0,0-7.2,3.4-10,4.5c-3.5,1.3-6.9,2.5-10.7,3c-3.3,0.5-11.1,1-14.8-8.2
		c-0.4-0.9-0.6-1.9-0.8-2.9c-0.3-2-0.2-4,0.4-5.8l0,0c0.4-1.9,1.3-3.7,2.5-5.3c0.6-0.8,1.3-1.5,2.1-2.1c7.7-6.2,14.3-1.9,16.9,0.1
		C33.4,46.7,35.9,49.4,38.3,52.2z"/>
	<path class="st0" d="M59.5,64.3c-2.9-0.8-10.4-3.5-10.4-3.5c0,0,3.9-6.9,5.6-9.4c2.1-3.1,4.3-6,7-8.6c2.4-2.3,8.5-7.2,16.8-1.7
		c0.9,0.6,1.6,1.2,2.3,1.9c1.4,1.4,2.4,3.2,3,5h0c0.7,1.8,1.1,3.8,0.9,5.7c-0.1,1-0.2,2-0.5,2.9c-3.4,11.5-9.9,9.8-13.9,9.6
		C66.6,66.1,63,65.3,59.5,64.3z"/>
	<path class="st0" d="M48.1,74.5c-0.1-3,0.2-11,0.2-11c0,0,7.7,1.7,10.7,2.5c3.6,1,7,2.3,10.3,4.1c2.9,1.6,9.4,5.9,6.8,15.5
		c-0.3,1-0.7,1.9-1.1,2.8c-1,1.8-2.3,3.2-3.8,4.4l0,0c-1.5,1.2-3.2,2.2-5.2,2.7c-1,0.2-1.9,0.4-3,0.4c-9.9,0.3-12.5-7.1-13.4-10.3
		C48.6,81.8,48.3,78.2,48.1,74.5z"/>
	<path class="st0" d="M35.2,66.8c2.9-1,10.5-3.2,10.5-3.2c0,0,0.8,7.9,0.8,10.9c0.1,3.7,0,7.4-0.8,11.1c-0.6,3.2-2.8,10.8-12.7,11.1
		c-1,0-2,0-3-0.2c-2-0.4-3.8-1.2-5.3-2.3l0,0c-1.6-1-3-2.4-4.1-4.1c-0.5-0.8-1-1.7-1.3-2.7c-3.2-9.4,3-14.1,5.8-15.9
		C28.3,69.5,31.7,68.1,35.2,66.8z"/>
</g>
<g>
	<path class="st1" d="M101.7,20.6c-0.1,1.4-0.5,5.1-0.5,5.1c0,0-3.6-1.1-4.9-1.6c-1.6-0.6-3.2-1.3-4.7-2.3c-1.3-0.8-4.2-3.1-2.6-7.5
		c0.2-0.5,0.4-0.9,0.6-1.3c0.5-0.8,1.2-1.4,2-1.9l0,0c0.7-0.5,1.6-0.9,2.5-1.1c0.5-0.1,0.9-0.1,1.4-0.1c4.6,0.2,5.6,3.8,5.9,5.3
		C101.8,17.1,101.8,18.8,101.7,20.6z"/>
	<path class="st1" d="M96.1,24.9c1.3,0.5,4.7,2,4.8,2c0,0-2.1,3.1-2.9,4.2c-1.1,1.4-2.2,2.7-3.6,3.8c-1.2,1-4.2,3.1-7.9,0.3
		c-0.4-0.3-0.7-0.6-1-1c-0.6-0.7-1-1.6-1.2-2.4h0c-0.3-0.9-0.4-1.8-0.3-2.7c0.1-0.5,0.2-0.9,0.3-1.4c1.6-4.4,5.3-4.2,6.8-4
		C92.8,23.8,94.4,24.3,96.1,24.9z"/>
	<path class="st1" d="M107.5,24.6c-1.4,0.4-5,1.1-5,1.1c0,0-0.1-3.7,0-5.1c0.1-1.7,0.3-3.4,0.7-5.1c0.4-1.5,1.7-4.9,6.3-4.7
		c0.5,0,0.9,0.1,1.4,0.2c0.9,0.2,1.7,0.7,2.4,1.3l0,0c0.7,0.5,1.3,1.3,1.8,2.1c0.2,0.4,0.4,0.8,0.5,1.3c1.2,4.5-1.9,6.5-3.3,7.2
		C110.8,23.6,109.2,24.2,107.5,24.6z"/>
	<path class="st1" d="M105.4,31.4c-0.8-1.2-2.6-4.4-2.6-4.5c0,0,3.5-1.2,4.9-1.6c1.7-0.4,3.4-0.8,5.1-0.9c1.5-0.1,5.2,0.1,6.5,4.6
		c0.1,0.5,0.2,0.9,0.2,1.4c0,0.9-0.1,1.9-0.5,2.7l0,0c-0.3,0.9-0.8,1.6-1.4,2.3c-0.3,0.3-0.7,0.6-1.1,0.9c-3.9,2.5-6.8,0.2-7.9-0.9
		C107.4,34.3,106.3,32.9,105.4,31.4z"/>
	<path class="st1" d="M98.3,31.5c0.9-1.1,3.5-3.8,3.5-3.8c0,0,2.2,3,3,4.2c0.9,1.5,1.8,3,2.4,4.6c0.5,1.5,1.5,5-2.4,7.5
		c-0.4,0.3-0.8,0.5-1.3,0.6c-0.9,0.3-1.8,0.4-2.7,0.4l0,0c-0.9,0-1.8-0.2-2.6-0.7c-0.4-0.2-0.8-0.5-1.2-0.8c-3.6-3-2.2-6.4-1.5-7.8
		C96.2,34.2,97.2,32.8,98.3,31.5z"/>
</g>
<g>
	<path class="st0" d="M33.4,99c-0.5,0-1,0-1.5-0.1c-0.4-0.1-0.7-0.4-0.6-0.8c0.1-0.4,0.4-0.7,0.8-0.6c0.5,0.1,1.1,0.1,1.6,0.1
		c0.4,0,0.8,0.3,0.8,0.7c0,0.4-0.3,0.7-0.7,0.8C33.7,99,33.5,99,33.4,99z M35.5,98.8c-0.4,0-0.7-0.3-0.7-0.6
		c-0.1-0.4,0.2-0.8,0.6-0.9c0.5-0.1,1.1-0.2,1.6-0.4c0.4-0.1,0.8,0.1,0.9,0.5c0.1,0.4-0.1,0.8-0.5,0.9c-0.6,0.2-1.2,0.4-1.8,0.5
		C35.6,98.8,35.5,98.8,35.5,98.8z M30.3,98.7c0,0-0.1,0-0.1,0c-0.7-0.1-1.2-0.2-1.7-0.3c-0.4-0.1-0.7-0.5-0.6-0.9
		c0.1-0.4,0.5-0.7,0.9-0.6c0.5,0.1,1,0.2,1.7,0.3c0.4,0.1,0.7,0.4,0.6,0.9C31,98.4,30.7,98.7,30.3,98.7z M26.9,98
		c-0.1,0-0.1,0-0.2,0c-0.6-0.2-1.2-0.4-1.7-0.6c-0.4-0.2-0.6-0.6-0.4-1c0.2-0.4,0.6-0.6,1-0.4c0.5,0.2,1,0.4,1.5,0.5
		c0.4,0.1,0.6,0.5,0.5,0.9C27.6,97.8,27.3,98,26.9,98z M62,97.9C62,97.9,62,97.9,62,97.9c-0.6,0-1.2-0.1-1.8-0.2
		c-0.4-0.1-0.7-0.4-0.6-0.8c0.1-0.4,0.4-0.7,0.8-0.6c0.5,0.1,1.1,0.1,1.6,0.2c0.4,0,0.7,0.4,0.7,0.8C62.7,97.5,62.4,97.9,62,97.9z
		 M63.7,97.8c-0.4,0-0.7-0.3-0.7-0.7c0-0.4,0.3-0.8,0.7-0.8c0.5,0,1.1-0.1,1.6-0.2c0.4-0.1,0.8,0.2,0.9,0.6c0.1,0.4-0.2,0.8-0.6,0.9
		C65,97.7,64.4,97.8,63.7,97.8C63.7,97.8,63.7,97.8,63.7,97.8z M38.8,97.7c-0.3,0-0.5-0.2-0.7-0.4c-0.2-0.4,0-0.8,0.4-1
		c0.5-0.2,1-0.5,1.5-0.8c0.3-0.2,0.8-0.1,1,0.2c0.2,0.3,0.1,0.8-0.2,1c-0.5,0.3-1.1,0.6-1.6,0.9C39,97.7,38.9,97.7,38.8,97.7z
		 M58.6,97.3c-0.1,0-0.1,0-0.2,0c-0.6-0.2-1.2-0.3-1.7-0.6c-0.4-0.1-0.6-0.6-0.4-1c0.1-0.4,0.6-0.6,1-0.4c0.5,0.2,1,0.4,1.6,0.5
		c0.4,0.1,0.6,0.5,0.5,0.9C59.2,97.1,58.9,97.3,58.6,97.3z M67.1,97.2c-0.3,0-0.6-0.2-0.7-0.6c-0.1-0.4,0.1-0.8,0.5-0.9
		c0.5-0.2,1.1-0.3,1.6-0.5c0.4-0.1,0.8,0.1,1,0.4c0.1,0.4,0,0.8-0.4,1c-0.5,0.2-1.1,0.4-1.7,0.5C67.3,97.2,67.2,97.2,67.1,97.2z
		 M23.8,96.6c-0.1,0-0.3,0-0.4-0.1c-0.5-0.3-1-0.7-1.5-1.1c-0.3-0.3-0.4-0.7-0.1-1c0.3-0.3,0.7-0.4,1-0.1c0.4,0.4,0.9,0.7,1.3,0.9
		c0.4,0.2,0.5,0.7,0.2,1C24.3,96.5,24,96.6,23.8,96.6z M55.3,96.1c-0.1,0-0.2,0-0.3-0.1c-0.5-0.3-1.1-0.6-1.6-0.9
		c-0.3-0.2-0.4-0.7-0.2-1c0.2-0.3,0.7-0.4,1-0.2c0.5,0.3,0.9,0.6,1.4,0.8c0.4,0.2,0.5,0.6,0.3,1C55.9,95.9,55.6,96.1,55.3,96.1z
		 M70.4,96c-0.3,0-0.5-0.1-0.7-0.4c-0.2-0.4,0-0.8,0.3-1c0.5-0.3,1-0.5,1.4-0.8c0.3-0.2,0.8-0.1,1,0.2c0.2,0.3,0.1,0.8-0.2,1
		c-0.5,0.3-1,0.6-1.6,0.9C70.6,96,70.5,96,70.4,96z M41.7,95.9c-0.2,0-0.4-0.1-0.6-0.3c-0.3-0.3-0.2-0.8,0.1-1
		c0.4-0.3,0.9-0.7,1.2-1.1c0.3-0.3,0.8-0.3,1,0c0.3,0.3,0.3,0.8,0,1.1c-0.4,0.4-0.9,0.8-1.4,1.2C42.1,95.9,41.9,95.9,41.7,95.9z
		 M21.1,94.4c-0.2,0-0.4-0.1-0.5-0.2c-0.4-0.4-0.8-0.9-1.2-1.4c-0.2-0.3-0.2-0.8,0.2-1c0.3-0.2,0.8-0.2,1,0.2c0.3,0.5,0.7,0.9,1,1.3
		c0.3,0.3,0.3,0.8,0,1C21.5,94.3,21.3,94.4,21.1,94.4z M52.4,94.2c-0.2,0-0.3,0-0.5-0.2c-0.5-0.4-0.9-0.8-1.3-1.2
		c-0.3-0.3-0.3-0.8,0-1c0.3-0.3,0.8-0.3,1.1,0c0.4,0.4,0.8,0.8,1.2,1.1c0.3,0.3,0.4,0.7,0.1,1C52.9,94.1,52.6,94.2,52.4,94.2z
		 M73.2,94c-0.2,0-0.4-0.1-0.6-0.2c-0.3-0.3-0.3-0.8,0.1-1c0.4-0.4,0.8-0.8,1.1-1.2c0.3-0.3,0.7-0.4,1-0.1c0.3,0.3,0.4,0.7,0.1,1
		c-0.4,0.5-0.8,0.9-1.3,1.3C73.6,94,73.4,94,73.2,94z M44.2,93.5c-0.2,0-0.3-0.1-0.5-0.2c-0.3-0.3-0.4-0.7-0.1-1
		c0.2-0.2,0.4-0.5,0.6-0.7l0.4-0.6c0.2-0.3,0.7-0.4,1-0.2c0.3,0.2,0.4,0.7,0.2,1l-0.4,0.6c-0.2,0.3-0.4,0.6-0.6,0.8
		C44.7,93.4,44.4,93.5,44.2,93.5z M50,91.8c-0.2,0-0.4-0.1-0.6-0.3c-0.3-0.3-0.5-0.6-0.8-0.9c-0.1-0.2-0.2-0.3-0.3-0.4
		c-0.3-0.3-0.2-0.8,0.1-1.1c0.3-0.3,0.8-0.2,1,0.1c0.1,0.1,0.2,0.3,0.4,0.4c0.2,0.3,0.5,0.6,0.7,0.9c0.3,0.3,0.2,0.8-0.1,1.1
		C50.3,91.7,50.1,91.8,50,91.8z M19.1,91.6c-0.3,0-0.5-0.1-0.6-0.4c-0.3-0.5-0.6-1.1-0.8-1.6c-0.2-0.4,0-0.8,0.4-1
		c0.4-0.2,0.8,0,1,0.4c0.2,0.5,0.5,1,0.8,1.5c0.2,0.4,0.1,0.8-0.3,1C19.3,91.6,19.2,91.6,19.1,91.6z M75.4,91.4
		c-0.1,0-0.3,0-0.4-0.1c-0.3-0.2-0.4-0.7-0.2-1c0.3-0.5,0.6-0.9,0.8-1.4c0.2-0.4,0.6-0.5,1-0.3c0.4,0.2,0.5,0.6,0.3,1
		c-0.3,0.6-0.6,1.1-0.9,1.6C75.9,91.3,75.7,91.4,75.4,91.4z M46.3,90.7c-0.2,0-0.3,0-0.4-0.1c-0.3-0.2-0.4-0.7-0.1-1
		c0.6-0.8,1.1-1.3,1.6-1.5c0.4-0.1,0.8,0.1,0.9,0.5c0.1,0.4-0.1,0.8-0.5,0.9c-0.1,0-0.3,0.2-0.9,0.9C46.7,90.6,46.5,90.7,46.3,90.7z
		 M17.6,88.5c-0.3,0-0.6-0.2-0.7-0.5c-0.2-0.6-0.4-1.1-0.5-1.7c-0.1-0.4,0.1-0.8,0.5-0.9c0.4-0.1,0.8,0.1,0.9,0.5
		c0.1,0.5,0.3,1.1,0.5,1.6c0.1,0.4-0.1,0.8-0.5,0.9C17.8,88.4,17.7,88.5,17.6,88.5z M77,88.3c-0.1,0-0.2,0-0.3,0
		c-0.4-0.1-0.6-0.6-0.4-0.9c0.2-0.5,0.3-1.1,0.5-1.6c0.1-0.4,0.5-0.6,0.9-0.6c0.4,0.1,0.6,0.5,0.5,0.9c-0.1,0.6-0.3,1.2-0.5,1.7
		C77.5,88.1,77.3,88.3,77,88.3z M16.8,85.1c-0.4,0-0.7-0.3-0.7-0.6c-0.1-0.6-0.1-1.2-0.2-1.8c0-0.4,0.3-0.8,0.7-0.8
		c0.4,0,0.8,0.3,0.8,0.7c0,0.5,0.1,1.1,0.2,1.6c0.1,0.4-0.2,0.8-0.6,0.8C16.9,85.1,16.8,85.1,16.8,85.1z M77.8,84.9
		C77.7,84.9,77.7,84.9,77.8,84.9c-0.5-0.1-0.8-0.4-0.7-0.8c0.1-0.5,0.1-1.1,0.1-1.6c0-0.4,0.3-0.7,0.7-0.7c0,0,0,0,0,0
		c0.4,0,0.7,0.3,0.7,0.8c0,0.6-0.1,1.2-0.1,1.8C78.4,84.7,78.1,84.9,77.8,84.9z M16.7,81.6C16.6,81.6,16.6,81.6,16.7,81.6
		c-0.5,0-0.8-0.4-0.7-0.8c0-0.6,0.1-1.2,0.3-1.8c0.1-0.4,0.5-0.7,0.9-0.6c0.4,0.1,0.7,0.5,0.6,0.9c-0.1,0.5-0.2,1.1-0.2,1.6
		C17.4,81.3,17,81.6,16.7,81.6z M77.8,81.5c-0.4,0-0.7-0.3-0.7-0.7c-0.1-0.5-0.1-1.1-0.2-1.6c-0.1-0.4,0.2-0.8,0.6-0.9
		c0.4-0.1,0.8,0.2,0.9,0.6c0.1,0.6,0.2,1.2,0.3,1.8C78.6,81.1,78.3,81.4,77.8,81.5C77.9,81.5,77.8,81.5,77.8,81.5z M17.4,78.3
		c-0.1,0-0.2,0-0.3,0c-0.4-0.2-0.6-0.6-0.4-1c0.2-0.6,0.5-1.2,0.8-1.7c0.2-0.3,0.7-0.5,1-0.3c0.4,0.2,0.5,0.7,0.3,1
		c-0.3,0.5-0.5,0.9-0.7,1.4C18,78.1,17.7,78.3,17.4,78.3z M77.1,78.1c-0.3,0-0.6-0.2-0.7-0.5c-0.2-0.5-0.3-1.1-0.6-1.6
		c-0.2-0.4,0-0.8,0.4-1c0.4-0.2,0.8,0,1,0.4c0.2,0.6,0.4,1.1,0.6,1.7c0.1,0.4-0.1,0.8-0.5,0.9C77.3,78.1,77.2,78.1,77.1,78.1z
		 M19.2,75.3c-0.2,0-0.3-0.1-0.5-0.2c-0.3-0.3-0.4-0.7-0.1-1c0.4-0.5,0.8-1,1.1-1.3c0.3-0.3,0.7-0.3,1.1-0.1c0.3,0.3,0.3,0.7,0.1,1
		c-0.3,0.4-0.7,0.8-1.1,1.3C19.6,75.2,19.4,75.3,19.2,75.3z M75.8,74.9c-0.3,0-0.5-0.1-0.7-0.4c-0.3-0.5-0.5-1-0.8-1.4
		c-0.2-0.3-0.2-0.8,0.2-1c0.3-0.2,0.8-0.2,1,0.2c0,0,0,0,0,0c0.3,0.5,0.6,1,0.9,1.5c0.2,0.4,0.1,0.8-0.3,1
		C76,74.9,75.9,74.9,75.8,74.9z M21.4,72.6c-0.1,0-0.3,0-0.4-0.1c-0.3-0.2-0.5-0.6-0.3-0.9c-0.1,0-0.2-0.1-0.3-0.1
		c-0.4-0.1-0.6-0.5-0.6-0.9c0.1-0.4,0.5-0.6,0.9-0.6c0.4,0.1,1.5,0.4,1.5,1.4c0,0.3-0.1,0.5-0.2,0.8C21.9,72.5,21.6,72.6,21.4,72.6z
		 M73.8,72c-0.2,0-0.4-0.1-0.6-0.3L73,71.5c-0.3-0.4-0.6-0.7-0.9-1.1c-0.3-0.3-0.2-0.8,0.1-1c0.3-0.3,0.8-0.2,1,0.1
		c0.3,0.3,0.6,0.7,0.9,1l0.2,0.3c0.3,0.3,0.2,0.8-0.1,1C74.2,72,74,72,73.8,72z M18.8,71.2c0,0-0.1,0-0.1,0
		c-0.6-0.1-1.2-0.2-1.8-0.4c-0.4-0.1-0.6-0.5-0.5-0.9c0.1-0.4,0.5-0.6,0.9-0.5c0.5,0.2,1.1,0.3,1.6,0.4c0.4,0.1,0.7,0.5,0.6,0.9
		C19.5,71,19.2,71.2,18.8,71.2z M15.5,70.3c-0.1,0-0.2,0-0.3-0.1c-0.6-0.2-1.1-0.5-1.6-0.8c-0.4-0.2-0.5-0.7-0.3-1
		c0.2-0.4,0.7-0.5,1-0.3c0.5,0.3,1,0.5,1.5,0.7c0.4,0.2,0.6,0.6,0.4,1C16.1,70.1,15.8,70.3,15.5,70.3z M71.7,69.3
		c-0.3,0-0.5-0.1-0.6-0.3c-0.3-0.5-0.4-0.8-0.4-1.1c0-0.5,0.4-1,1-1c0.1,0,0.1,0,0.2,0c0.1,0,0.2,0,0.4,0c0.4,0,0.7,0.4,0.7,0.8
		c0,0.3-0.2,0.6-0.5,0.6c0.1,0.3,0,0.6-0.3,0.8C71.9,69.3,71.8,69.3,71.7,69.3z M12.5,68.6c-0.2,0-0.3,0-0.4-0.1
		c-0.5-0.4-1-0.8-1.4-1.2c-0.3-0.3-0.3-0.8,0-1.1c0.3-0.3,0.8-0.3,1,0c0.4,0.4,0.8,0.7,1.2,1.1c0.3,0.2,0.4,0.7,0.2,1
		C12.9,68.5,12.7,68.6,12.5,68.6z M73.9,68.5c-0.4,0-0.7-0.3-0.7-0.7c0-0.4,0.3-0.8,0.7-0.8c0.5,0,1.1-0.1,1.6-0.2
		c0.4-0.1,0.8,0.2,0.9,0.6c0.1,0.4-0.2,0.8-0.6,0.9C75.2,68.4,74.6,68.5,73.9,68.5C73.9,68.5,73.9,68.5,73.9,68.5z M77.3,67.9
		c-0.3,0-0.6-0.2-0.7-0.5c-0.1-0.4,0.1-0.8,0.5-0.9c0.5-0.2,1-0.4,1.5-0.6c0.4-0.2,0.8,0,1,0.3c0.2,0.4,0,0.8-0.3,1
		c-0.5,0.3-1.1,0.5-1.7,0.7C77.5,67.9,77.4,67.9,77.3,67.9z M80.4,66.4c-0.2,0-0.5-0.1-0.6-0.3c-0.2-0.3-0.1-0.8,0.2-1
		c0.4-0.3,0.9-0.6,1.3-1c0.3-0.3,0.8-0.3,1.1,0.1c0.3,0.3,0.3,0.8-0.1,1.1c-0.5,0.4-0.9,0.8-1.5,1.1C80.7,66.3,80.6,66.4,80.4,66.4z
		 M10,66.2c-0.2,0-0.4-0.1-0.6-0.3c-0.4-0.5-0.7-1-1-1.5c-0.2-0.4-0.1-0.8,0.3-1c0.4-0.2,0.8-0.1,1,0.3c0.3,0.5,0.6,0.9,0.9,1.3
		c0.3,0.3,0.2,0.8-0.1,1C10.3,66.1,10.2,66.2,10,66.2z M83,64.1c-0.2,0-0.3-0.1-0.5-0.2c-0.3-0.3-0.4-0.7-0.1-1
		c0.3-0.4,0.7-0.9,0.9-1.3c0.2-0.4,0.7-0.5,1-0.2c0.4,0.2,0.5,0.7,0.2,1c-0.3,0.5-0.7,1-1.1,1.5C83.4,64,83.2,64.1,83,64.1z
		 M8.3,63.2c-0.3,0-0.6-0.2-0.7-0.5c-0.1-0.3-0.3-0.7-0.4-1C7.1,61.5,7.1,61.2,7,61c-0.1-0.4,0.1-0.8,0.5-0.9
		c0.4-0.1,0.8,0.1,0.9,0.5c0.1,0.2,0.1,0.5,0.2,0.7c0.1,0.3,0.2,0.6,0.3,0.9c0.2,0.4,0,0.8-0.4,1C8.5,63.2,8.4,63.2,8.3,63.2z
		 M84.8,61.1c-0.1,0-0.2,0-0.3-0.1c-0.4-0.2-0.5-0.6-0.4-1c0.1-0.3,0.2-0.6,0.4-0.9c0.1-0.2,0.2-0.5,0.2-0.7
		c0.1-0.4,0.5-0.6,0.9-0.5c0.4,0.1,0.6,0.5,0.5,0.9c-0.1,0.2-0.2,0.5-0.3,0.7c-0.1,0.3-0.3,0.6-0.4,1C85.4,61,85.1,61.1,84.8,61.1z
		 M7.3,59.9c-0.3,0-0.6-0.2-0.7-0.6c-0.1-0.6-0.2-1.2-0.3-1.8c-0.1-0.4,0.2-0.8,0.6-0.8c0.4-0.1,0.8,0.2,0.8,0.6
		C7.8,57.9,7.9,58.4,8,59c0.1,0.4-0.2,0.8-0.6,0.9C7.4,59.9,7.3,59.9,7.3,59.9z M85.9,57.9c-0.1,0-0.1,0-0.2,0
		c-0.4-0.1-0.7-0.5-0.6-0.9c0.1-0.5,0.2-1.1,0.3-1.6c0.1-0.4,0.4-0.7,0.8-0.6c0.4,0.1,0.7,0.4,0.6,0.8c-0.1,0.6-0.2,1.2-0.3,1.8
		C86.6,57.6,86.3,57.9,85.9,57.9z M6.8,56.4c-0.4,0-0.7-0.3-0.7-0.7c0-0.3,0-0.5,0-0.8c0-0.3,0-0.7,0-1c0-0.4,0.4-0.7,0.8-0.7
		c0.4,0,0.7,0.4,0.7,0.8c0,0.3,0,0.6,0,0.9c0,0.2,0,0.5,0,0.7C7.6,56.1,7.3,56.4,6.8,56.4C6.8,56.4,6.8,56.4,6.8,56.4z M86.4,54.4
		C86.4,54.4,86.4,54.4,86.4,54.4c-0.4,0-0.8-0.4-0.7-0.8c0-0.2,0-0.5,0-0.7c0-0.3,0-0.7,0-1c0-0.4,0.3-0.8,0.7-0.8
		c0.4,0,0.8,0.3,0.8,0.7c0,0.3,0,0.7,0,1.1c0,0.3,0,0.5,0,0.8C87.1,54.1,86.8,54.4,86.4,54.4z M7,53c0,0-0.1,0-0.1,0
		c-0.4-0.1-0.7-0.4-0.6-0.9c0.1-0.6,0.2-1.2,0.4-1.8c0.1-0.4,0.5-0.6,0.9-0.5c0.4,0.1,0.6,0.5,0.5,0.9c-0.1,0.5-0.3,1.1-0.4,1.6
		C7.7,52.7,7.4,53,7,53z M86.2,51c-0.4,0-0.7-0.3-0.7-0.6c-0.1-0.5-0.2-1.1-0.3-1.6c-0.1-0.4,0.1-0.8,0.5-0.9
		c0.4-0.1,0.8,0.1,0.9,0.5c0.1,0.6,0.3,1.2,0.4,1.8c0.1,0.4-0.2,0.8-0.6,0.8C86.3,51,86.2,51,86.2,51z M7.9,49.6
		c-0.1,0-0.2,0-0.3-0.1c-0.4-0.2-0.6-0.6-0.4-1C7.5,48,7.7,47.5,8,47c0.2-0.4,0.7-0.5,1-0.3c0.4,0.2,0.5,0.7,0.3,1
		c-0.3,0.5-0.5,1-0.7,1.5C8.5,49.5,8.2,49.6,7.9,49.6z M85.3,47.6c-0.3,0-0.6-0.2-0.7-0.5c-0.2-0.5-0.4-1-0.7-1.5
		c-0.2-0.4,0-0.8,0.3-1c0.4-0.2,0.8,0,1,0.3c0.3,0.5,0.5,1.1,0.7,1.7c0.1,0.4,0,0.8-0.4,1C85.5,47.6,85.4,47.6,85.3,47.6z M9.6,46.6
		c-0.2,0-0.3,0-0.4-0.1c-0.3-0.2-0.4-0.7-0.2-1c0.4-0.5,0.7-1,1.2-1.4c0.3-0.3,0.7-0.3,1,0c0.3,0.3,0.3,0.7,0,1
		c-0.4,0.4-0.7,0.8-1,1.3C10.1,46.5,9.9,46.6,9.6,46.6z M83.7,44.5c-0.2,0-0.5-0.1-0.6-0.3c-0.3-0.5-0.6-0.9-1-1.3
		c-0.3-0.3-0.2-0.8,0.1-1c0.3-0.3,0.8-0.2,1,0.1c0.4,0.5,0.8,0.9,1.1,1.5c0.2,0.3,0.1,0.8-0.2,1C84,44.5,83.9,44.5,83.7,44.5z
		 M12,44.1c-0.2,0-0.4-0.1-0.6-0.3c-0.3-0.3-0.2-0.8,0.1-1c0.4-0.4,0.9-0.8,1.4-1.1c0.3-0.2,0.8-0.2,1,0.2c0.2,0.3,0.2,0.8-0.2,1
		c-0.5,0.3-0.9,0.7-1.3,1C12.3,44,12.1,44.1,12,44.1z M31.2,43.3c-0.4,0-0.7-0.3-0.7-0.7c0-0.4,0.3-0.7,0.7-0.7c0,0,0-0.1,0-0.2
		c0-0.1,0-0.2,0-0.3c0,0,0,0,0-0.1c-0.2-0.5-0.4-1.1-0.6-1.6c-0.1-0.4,0.1-0.8,0.5-0.9c0.4-0.1,0.8,0.1,0.9,0.5
		c0.2,0.5,0.4,1,0.6,1.5c0,0.1,0.1,0.2,0.1,0.3c0,0,0,0.1,0,0.1c0,0.2,0,0.4,0,0.5C32.7,42.9,31.9,43.3,31.2,43.3z M29.6,42.7
		c-0.1,0-0.3,0-0.4-0.1c-0.6-0.3-1-0.6-1.5-0.8c-0.4-0.2-0.5-0.6-0.3-1c0.2-0.4,0.6-0.5,1-0.3c0.5,0.2,1,0.5,1.6,0.8
		c0.4,0.2,0.5,0.7,0.3,1C30.1,42.5,29.9,42.7,29.6,42.7z M14.8,42.1c-0.3,0-0.5-0.1-0.6-0.4c-0.2-0.4-0.1-0.8,0.3-1
		c0.5-0.3,1.1-0.6,1.6-0.8c0.4-0.2,0.8,0,1,0.4c0.2,0.4,0,0.8-0.4,1c-0.5,0.2-1,0.5-1.5,0.7C15,42,14.9,42.1,14.8,42.1z M81.5,41.9
		c-0.2,0-0.4-0.1-0.5-0.2c-0.4-0.4-0.8-0.7-1.3-1c-0.3-0.2-0.4-0.7-0.2-1c0.2-0.3,0.7-0.4,1-0.2c0.5,0.3,1,0.7,1.4,1.1
		c0.3,0.3,0.3,0.7,0.1,1.1C81.9,41.8,81.7,41.9,81.5,41.9z M60.9,41.7c-0.2,0-0.5-0.1-0.7-0.2c-0.4-0.2-0.5-0.7-0.3-1
		c0.2-0.3,0.6-0.5,1-0.3c0.1,0,0.3-0.1,0.9-0.4c0.3-0.2,0.8-0.1,1,0.2c0.2,0.3,0.1,0.8-0.2,1C61.9,41.5,61.4,41.7,60.9,41.7z
		 M26.5,41.2c-0.1,0-0.2,0-0.2,0c-0.5-0.2-1-0.3-1.6-0.4c-0.4-0.1-0.7-0.5-0.6-0.9c0.1-0.4,0.5-0.7,0.9-0.6c0.6,0.1,1.2,0.3,1.8,0.5
		c0.4,0.1,0.6,0.6,0.5,0.9C27.1,41,26.8,41.2,26.5,41.2z M18,40.7c-0.3,0-0.6-0.2-0.7-0.5c-0.1-0.4,0.1-0.8,0.5-0.9
		c0.6-0.2,1.2-0.3,1.8-0.4c0.4-0.1,0.8,0.2,0.8,0.6c0.1,0.4-0.2,0.8-0.6,0.8c-0.5,0.1-1,0.2-1.6,0.4C18.1,40.7,18.1,40.7,18,40.7z
		 M23.1,40.4C23.1,40.4,23.1,40.4,23.1,40.4c-0.5-0.1-1-0.1-1.6-0.2c-0.1,0-0.1,0-0.2,0c-0.4,0-0.7-0.4-0.7-0.8
		c0-0.4,0.4-0.7,0.8-0.7c0.1,0,0.2,0,0.2,0c0.6,0,1.1,0.1,1.6,0.2c0.4,0.1,0.7,0.4,0.6,0.8C23.8,40.1,23.5,40.4,23.1,40.4z
		 M63.7,40.3c-0.3,0-0.5-0.1-0.6-0.4c-0.2-0.4-0.1-0.8,0.3-1c0.5-0.3,1.1-0.6,1.6-0.8c0.4-0.2,0.8,0,1,0.4c0.2,0.4,0,0.8-0.4,1
		c-0.5,0.2-1,0.5-1.5,0.7C63.9,40.2,63.8,40.3,63.7,40.3z M60.3,40c0,0-0.1,0-0.1,0c-0.4-0.1-0.7-0.4-0.6-0.8c0-0.2,0.1-0.5,0.1-0.7
		c0.1-0.3,0.1-0.7,0.2-1c0.1-0.4,0.5-0.7,0.9-0.6c0.4,0.1,0.7,0.5,0.6,0.9c-0.1,0.3-0.1,0.7-0.2,1.1c0,0.2-0.1,0.4-0.1,0.6
		C61,39.8,60.7,40,60.3,40z M78.6,39.9c-0.1,0-0.2,0-0.4-0.1c-0.5-0.3-1-0.5-1.5-0.7c-0.4-0.1-0.6-0.6-0.4-1c0.2-0.4,0.6-0.6,1-0.4
		c0.6,0.2,1.1,0.5,1.6,0.8c0.4,0.2,0.5,0.6,0.3,1C79.2,39.8,78.9,39.9,78.6,39.9z M66.9,38.9c-0.3,0-0.6-0.2-0.7-0.5
		c-0.1-0.4,0.1-0.8,0.5-0.9c0.6-0.2,1.2-0.3,1.8-0.4c0.4-0.1,0.8,0.2,0.9,0.6c0.1,0.4-0.2,0.8-0.6,0.9c-0.5,0.1-1.1,0.2-1.6,0.4
		C67,38.9,66.9,38.9,66.9,38.9z M75.4,38.7c-0.1,0-0.1,0-0.2,0c-0.5-0.1-1.1-0.2-1.6-0.3c-0.4-0.1-0.7-0.4-0.6-0.8
		c0.1-0.4,0.4-0.7,0.8-0.6c0.6,0.1,1.2,0.2,1.8,0.4c0.4,0.1,0.6,0.5,0.5,0.9C76.1,38.4,75.8,38.7,75.4,38.7z M30.7,38.5
		c-0.3,0-0.6-0.2-0.7-0.6c-0.1-0.6-0.2-1.2-0.3-1.8c0-0.4,0.3-0.8,0.7-0.8c0.4,0,0.8,0.3,0.8,0.7c0.1,0.5,0.1,1.1,0.3,1.6
		c0.1,0.4-0.2,0.8-0.6,0.9C30.8,38.5,30.8,38.5,30.7,38.5z M70.3,38.2c-0.4,0-0.7-0.3-0.7-0.7c0-0.4,0.3-0.8,0.7-0.8
		c0.6-0.1,1.2-0.1,1.8-0.1c0.4,0,0.7,0.4,0.7,0.8c0,0.4-0.4,0.7-0.8,0.7C71.4,38.2,70.9,38.2,70.3,38.2
		C70.3,38.2,70.3,38.2,70.3,38.2z M60.9,36.6C60.9,36.6,60.8,36.6,60.9,36.6c-0.5,0-0.8-0.4-0.7-0.8c0-0.3,0-0.7,0-1
		c0-0.2,0-0.4,0-0.6c0-0.4,0.3-0.8,0.7-0.8c0.4,0,0.8,0.3,0.8,0.7c0,0.2,0,0.5,0,0.7c0,0.4,0,0.7,0,1.1
		C61.6,36.3,61.3,36.6,60.9,36.6z M30.4,35C30.4,35,30.4,35,30.4,35c-0.4,0-0.8-0.3-0.7-0.8c0-0.6,0.1-1.2,0.2-1.8
		c0.1-0.4,0.4-0.7,0.8-0.6c0.4,0.1,0.7,0.4,0.6,0.8c-0.1,0.5-0.1,1.1-0.1,1.6C31.1,34.7,30.8,35,30.4,35z M60.7,33.2
		c-0.3,0-0.7-0.2-0.7-0.6c-0.1-0.5-0.3-1-0.4-1.6c-0.1-0.4,0.1-0.8,0.5-0.9c0.4-0.1,0.8,0.1,0.9,0.5c0.2,0.6,0.4,1.2,0.5,1.8
		c0.1,0.4-0.2,0.8-0.6,0.9C60.8,33.1,60.7,33.2,60.7,33.2z M30.9,31.6c-0.1,0-0.1,0-0.2,0c-0.4-0.1-0.6-0.5-0.5-0.9
		c0.2-0.6,0.4-1.2,0.6-1.7c0.2-0.4,0.6-0.5,1-0.4c0.4,0.2,0.5,0.6,0.4,1c-0.2,0.5-0.4,1-0.6,1.5C31.5,31.4,31.2,31.6,30.9,31.6z
		 M59.6,29.9c-0.3,0-0.6-0.2-0.7-0.4c-0.2-0.4-0.4-0.8-0.6-1.2c-0.1-0.1-0.1-0.2-0.2-0.3c-0.2-0.4-0.1-0.8,0.3-1
		c0.4-0.2,0.8-0.1,1,0.3c0.1,0.1,0.1,0.3,0.2,0.4c0.2,0.4,0.4,0.8,0.6,1.2c0.2,0.4,0,0.8-0.4,1C59.8,29.9,59.7,29.9,59.6,29.9z
		 M32.3,28.5c-0.1,0-0.3,0-0.4-0.1c-0.3-0.2-0.5-0.7-0.2-1c0.3-0.5,0.7-1,1.1-1.5c0.3-0.3,0.7-0.4,1-0.1c0.3,0.3,0.4,0.7,0.1,1
		c-0.3,0.4-0.7,0.9-1,1.3C32.8,28.4,32.6,28.5,32.3,28.5z M57.9,26.9c-0.2,0-0.4-0.1-0.6-0.3c-0.3-0.4-0.7-0.8-1.1-1.2
		c-0.3-0.3-0.3-0.8,0-1.1c0.3-0.3,0.8-0.3,1,0c0.4,0.4,0.8,0.9,1.2,1.4c0.3,0.3,0.2,0.8-0.1,1C58.2,26.8,58,26.9,57.9,26.9z
		 M34.5,25.8c-0.2,0-0.4-0.1-0.5-0.2c-0.3-0.3-0.3-0.8,0-1.1c0.4-0.4,0.9-0.8,1.4-1.2c0.3-0.2,0.8-0.2,1,0.1c0.2,0.3,0.2,0.8-0.1,1
		c-0.4,0.3-0.9,0.7-1.3,1.1C34.9,25.7,34.7,25.8,34.5,25.8z M55.4,24.5c-0.1,0-0.3,0-0.4-0.1c-0.1-0.1-0.2-0.1-0.2-0.2
		c-0.4-0.2-0.8-0.5-1.2-0.7c-0.4-0.2-0.5-0.6-0.3-1c0.2-0.4,0.6-0.5,1-0.3c0.5,0.2,0.9,0.5,1.3,0.8c0.1,0.1,0.2,0.1,0.3,0.2
		c0.3,0.2,0.4,0.7,0.2,1C55.9,24.3,55.6,24.5,55.4,24.5z M37.3,23.7c-0.3,0-0.5-0.1-0.6-0.4c-0.2-0.4-0.1-0.8,0.3-1
		c0.5-0.3,1.1-0.6,1.6-0.8c0.4-0.2,0.8,0,1,0.4c0.2,0.4,0,0.8-0.4,1c-0.5,0.2-1,0.5-1.5,0.8C37.5,23.7,37.4,23.7,37.3,23.7z
		 M52.3,22.8c-0.1,0-0.2,0-0.3-0.1c-0.5-0.2-1-0.4-1.6-0.5c-0.4-0.1-0.6-0.5-0.5-0.9c0.1-0.4,0.5-0.6,0.9-0.5
		c0.6,0.2,1.2,0.4,1.7,0.6c0.4,0.2,0.6,0.6,0.4,1C52.9,22.6,52.6,22.8,52.3,22.8z M40.4,22.3c-0.3,0-0.6-0.2-0.7-0.5
		c-0.1-0.4,0.1-0.8,0.5-0.9c0.6-0.2,1.2-0.3,1.8-0.4c0.4-0.1,0.8,0.2,0.9,0.6c0.1,0.4-0.2,0.8-0.6,0.9c-0.5,0.1-1.1,0.2-1.6,0.4
		C40.6,22.3,40.5,22.3,40.4,22.3z M49,21.9c0,0-0.1,0-0.1,0c-0.5-0.1-1.1-0.2-1.6-0.2c-0.4,0-0.7-0.4-0.7-0.8c0-0.4,0.4-0.7,0.8-0.7
		c0.6,0.1,1.2,0.1,1.8,0.2c0.4,0.1,0.7,0.5,0.6,0.9C49.7,21.6,49.4,21.9,49,21.9z M43.8,21.6c-0.4,0-0.7-0.3-0.7-0.7
		c0-0.4,0.3-0.8,0.7-0.8c0.6-0.1,1.2-0.1,1.8-0.1c0,0,0,0,0,0c0.4,0,0.7,0.3,0.7,0.7c0,0.4-0.3,0.7-0.7,0.7
		C45,21.5,44.5,21.6,43.8,21.6C43.9,21.6,43.9,21.6,43.8,21.6z"/>
</g>
<g>
	<path class="st0" d="M32.5,100.8C32.5,100.8,32.5,100.8,32.5,100.8c-0.6,0-1.2,0-1.8-0.1c-0.4,0-0.7-0.4-0.7-0.8
		c0-0.4,0.4-0.7,0.8-0.7c0.6,0,1.1,0.1,1.7,0.1c0.4,0,0.7,0.3,0.7,0.8C33.3,100.5,32.9,100.8,32.5,100.8z M34.3,100.8
		c-0.4,0-0.7-0.3-0.7-0.7c0-0.4,0.3-0.8,0.7-0.8c0.6,0,1.1-0.1,1.7-0.2c0.4-0.1,0.8,0.2,0.8,0.6c0.1,0.4-0.2,0.8-0.6,0.8
		C35.5,100.7,34.9,100.8,34.3,100.8C34.3,100.8,34.3,100.8,34.3,100.8z M29.1,100.6c0,0-0.1,0-0.1,0c-0.6-0.1-1.2-0.2-1.8-0.4
		c-0.4-0.1-0.6-0.5-0.5-0.9c0.1-0.4,0.5-0.6,0.9-0.5c0.5,0.1,1.1,0.2,1.6,0.3c0.4,0.1,0.7,0.4,0.6,0.8
		C29.8,100.3,29.4,100.6,29.1,100.6z M37.7,100.3c-0.3,0-0.6-0.2-0.7-0.6c-0.1-0.4,0.1-0.8,0.5-0.9c0.5-0.2,1.1-0.3,1.5-0.5
		c0.4-0.2,0.8,0,1,0.4c0.2,0.4,0,0.8-0.4,1c-0.5,0.2-1.1,0.4-1.7,0.6C37.8,100.3,37.7,100.3,37.7,100.3z M61.7,100.2
		C61.7,100.2,61.7,100.2,61.7,100.2c-0.6,0-1.2-0.1-1.8-0.1c-0.4,0-0.7-0.4-0.7-0.8c0-0.4,0.4-0.7,0.8-0.7c0.6,0.1,1.1,0.1,1.7,0.1
		c0.4,0,0.7,0.4,0.7,0.8C62.5,99.8,62.1,100.2,61.7,100.2z M63.5,100.2c-0.4,0-0.7-0.3-0.7-0.7c0-0.4,0.3-0.8,0.7-0.8
		c0.6,0,1.1-0.1,1.7-0.1c0.4,0,0.8,0.2,0.8,0.7c0,0.4-0.2,0.8-0.7,0.8C64.7,100.1,64.1,100.1,63.5,100.2
		C63.5,100.2,63.5,100.2,63.5,100.2z M58.3,99.8c0,0-0.1,0-0.1,0c-0.6-0.1-1.2-0.2-1.8-0.4c-0.4-0.1-0.6-0.5-0.5-0.9
		c0.1-0.4,0.5-0.6,0.9-0.5c0.5,0.1,1.1,0.3,1.6,0.3c0.4,0.1,0.7,0.5,0.6,0.9C58.9,99.6,58.6,99.8,58.3,99.8z M66.9,99.8
		c-0.3,0-0.7-0.2-0.7-0.6c-0.1-0.4,0.2-0.8,0.6-0.9c0.6-0.1,1.1-0.2,1.6-0.4c0.4-0.1,0.8,0.1,0.9,0.5c0.1,0.4-0.1,0.8-0.5,0.9
		c-0.5,0.2-1.1,0.3-1.8,0.5C67,99.8,66.9,99.8,66.9,99.8z M25.7,99.7c-0.1,0-0.2,0-0.2,0c-0.6-0.2-1.1-0.4-1.7-0.7
		c-0.4-0.2-0.5-0.6-0.4-1c0.2-0.4,0.6-0.5,1-0.4c0.5,0.2,1,0.4,1.5,0.6c0.4,0.1,0.6,0.6,0.5,0.9C26.3,99.5,26,99.7,25.7,99.7z
		 M40.9,98.9c-0.3,0-0.5-0.1-0.7-0.4c-0.2-0.4,0-0.8,0.3-1c0.2-0.1,0.3-0.2,0.5-0.2c0.3-0.2,0.7-0.3,1-0.6c0.4-0.2,0.8-0.1,1,0.3
		c0.2,0.3,0.1,0.8-0.3,1c-0.4,0.2-0.8,0.4-1.1,0.6c-0.1,0.1-0.3,0.1-0.4,0.2C41.1,98.9,41,98.9,40.9,98.9z M55,98.9
		c-0.1,0-0.2,0-0.3-0.1c-0.5-0.3-1.1-0.6-1.6-0.9c-0.3-0.2-0.4-0.7-0.2-1c0.2-0.3,0.7-0.4,1-0.2c0.5,0.3,0.9,0.6,1.4,0.8
		c0.4,0.2,0.5,0.6,0.3,1C55.5,98.7,55.2,98.9,55,98.9z M70.2,98.7c-0.3,0-0.5-0.2-0.7-0.4c-0.2-0.4,0-0.8,0.3-1
		c0.5-0.2,1-0.5,1.4-0.8c0.3-0.2,0.8-0.1,1,0.2c0.2,0.3,0.1,0.8-0.2,1c-0.5,0.3-1,0.6-1.6,0.9C70.4,98.7,70.3,98.7,70.2,98.7z
		 M22.6,98.2c-0.1,0-0.3,0-0.4-0.1c-0.5-0.3-1-0.7-1.5-1c-0.3-0.2-0.4-0.7-0.1-1c0.3-0.3,0.7-0.4,1-0.1c0.4,0.3,0.9,0.6,1.4,0.9
		c0.4,0.2,0.5,0.7,0.3,1C23.1,98.1,22.8,98.2,22.6,98.2z M43.8,97.1c-0.2,0-0.4-0.1-0.6-0.3c-0.3-0.3-0.2-0.8,0.1-1
		c0.4-0.3,0.8-0.7,1.2-1.1c0.3-0.3,0.8-0.3,1.1,0c0.3,0.3,0.3,0.8,0,1c-0.5,0.5-0.9,0.9-1.3,1.2C44.1,97.1,44,97.1,43.8,97.1z
		 M52.1,97c-0.2,0-0.3-0.1-0.5-0.2c-0.5-0.4-0.9-0.8-1.3-1.2c-0.3-0.3-0.3-0.8,0-1c0.3-0.3,0.8-0.3,1.1,0c0.4,0.4,0.8,0.8,1.2,1.1
		c0.3,0.3,0.4,0.7,0.1,1C52.5,96.9,52.3,97,52.1,97z M73.1,96.8c-0.2,0-0.4-0.1-0.6-0.3c-0.3-0.3-0.2-0.8,0.1-1
		c0.4-0.3,0.9-0.7,1.3-1.1c0.3-0.3,0.8-0.3,1.1,0c0.3,0.3,0.3,0.8,0,1c-0.4,0.4-0.9,0.8-1.4,1.2C73.4,96.8,73.3,96.8,73.1,96.8z
		 M19.8,96.1c-0.2,0-0.4-0.1-0.5-0.2c-0.4-0.4-0.8-0.9-1.2-1.4c-0.3-0.3-0.2-0.8,0.1-1c0.3-0.3,0.8-0.2,1,0.1
		c0.3,0.4,0.7,0.8,1.1,1.2c0.3,0.3,0.3,0.8,0,1.1C20.2,96.1,20,96.1,19.8,96.1z M46.2,94.7c-0.2,0-0.3,0-0.4-0.1
		c-0.3-0.2-0.4-0.7-0.2-1c0.2-0.3,0.4-0.6,0.6-0.9c0.1-0.2,0.2-0.4,0.3-0.5c0.2-0.3,0.7-0.4,1-0.2c0.1,0.1,0.2,0.2,0.3,0.3
		c0-0.1,0.1-0.2,0.2-0.3c0.3-0.3,0.8-0.3,1.1,0c0.2,0.2,0.4,0.5,0.7,0.8c0.2,0.2,0.3,0.4,0.5,0.6c0.3,0.3,0.2,0.8-0.1,1
		c-0.3,0.3-0.8,0.2-1-0.1c-0.2-0.2-0.3-0.4-0.5-0.6c-0.2-0.3-0.4-0.5-0.5-0.6c-0.1-0.1-0.1-0.2-0.2-0.2c0,0,0,0.1-0.1,0.1
		c-0.1,0.1-0.2,0.3-0.3,0.4c-0.2,0.3-0.4,0.7-0.7,1.1C46.7,94.6,46.5,94.7,46.2,94.7z M75.6,94.4c-0.2,0-0.3-0.1-0.5-0.2
		c-0.3-0.3-0.3-0.7-0.1-1.1c0.4-0.4,0.7-0.9,1-1.3c0.2-0.3,0.7-0.4,1-0.2c0.3,0.2,0.4,0.7,0.2,1c-0.4,0.5-0.7,1-1.1,1.4
		C76,94.4,75.8,94.4,75.6,94.4z M17.7,93.4c-0.2,0-0.5-0.1-0.6-0.3c-0.3-0.5-0.6-1-0.9-1.5c-0.2-0.4-0.1-0.8,0.3-1
		c0.4-0.2,0.8-0.1,1,0.3c0.3,0.5,0.6,1,0.9,1.4c0.2,0.3,0.1,0.8-0.2,1C18,93.4,17.8,93.4,17.7,93.4z M77.6,91.6
		c-0.1,0-0.3,0-0.4-0.1c-0.4-0.2-0.5-0.7-0.3-1c0.3-0.5,0.5-1,0.8-1.5c0.2-0.4,0.6-0.5,1-0.3c0.4,0.2,0.5,0.6,0.3,1
		c-0.3,0.5-0.5,1.1-0.9,1.6C78.1,91.5,77.9,91.6,77.6,91.6z M16,90.4c-0.3,0-0.6-0.2-0.7-0.4c-0.2-0.6-0.5-1.1-0.6-1.7
		c-0.1-0.4,0.1-0.8,0.5-0.9c0.4-0.1,0.8,0.1,0.9,0.5c0.2,0.5,0.4,1,0.6,1.6c0.2,0.4,0,0.8-0.4,1C16.2,90.4,16.1,90.4,16,90.4z
		 M79.2,88.5c-0.1,0-0.2,0-0.3,0c-0.4-0.1-0.6-0.6-0.4-1c0.2-0.6,0.4-1.1,0.5-1.4l0-0.1c0.1-0.4,0.5-0.6,0.9-0.5
		c0.4,0.1,0.6,0.5,0.5,0.9l0,0.2c-0.1,0.3-0.2,0.9-0.5,1.6C79.7,88.3,79.5,88.5,79.2,88.5z M15,87.1c-0.3,0-0.6-0.2-0.7-0.6
		c-0.1-0.6-0.2-1.2-0.3-1.8c-0.1-0.4,0.2-0.8,0.6-0.8c0.4-0.1,0.8,0.2,0.8,0.6c0.1,0.5,0.2,1.1,0.3,1.6c0.1,0.4-0.2,0.8-0.6,0.9
		C15.1,87.1,15,87.1,15,87.1z M80,85.2c0,0-0.1,0-0.1,0c-0.4-0.1-0.7-0.4-0.6-0.9c0.1-0.6,0.2-1.1,0.2-1.7c0-0.4,0.4-0.7,0.8-0.7
		c0.4,0,0.7,0.4,0.7,0.8c0,0.6-0.1,1.2-0.2,1.8C80.7,84.9,80.4,85.2,80,85.2z M14.5,83.7c-0.4,0-0.7-0.3-0.7-0.7c0-0.3,0-0.5,0-0.8
		c0-0.3,0-0.7,0-1c0-0.4,0.4-0.7,0.8-0.7c0.4,0,0.7,0.4,0.7,0.8c0,0.3,0,0.6,0,0.9c0,0.2,0,0.5,0,0.7C15.3,83.3,14.9,83.6,14.5,83.7
		C14.5,83.7,14.5,83.7,14.5,83.7z M80.3,81.7c-0.4,0-0.7-0.3-0.7-0.7c0-0.6-0.1-1.1-0.1-1.6c-0.1-0.4,0.2-0.8,0.6-0.8
		c0.4-0.1,0.8,0.2,0.8,0.6c0.1,0.6,0.1,1.2,0.1,1.8C81,81.4,80.7,81.7,80.3,81.7C80.3,81.7,80.3,81.7,80.3,81.7z M14.7,80.2
		c0,0-0.1,0-0.1,0c-0.4-0.1-0.7-0.4-0.6-0.9c0.1-0.6,0.2-1.2,0.4-1.8c0.1-0.4,0.5-0.6,0.9-0.5c0.4,0.1,0.6,0.5,0.5,0.9
		c-0.1,0.5-0.3,1.1-0.3,1.6C15.4,79.9,15,80.2,14.7,80.2z M79.8,78.3c-0.3,0-0.6-0.2-0.7-0.6c-0.1-0.5-0.3-1.1-0.5-1.6
		c-0.1-0.4,0.1-0.8,0.4-0.9c0.4-0.1,0.8,0.1,1,0.4c0.2,0.6,0.4,1.2,0.5,1.7c0.1,0.4-0.1,0.8-0.5,0.9C79.9,78.3,79.9,78.3,79.8,78.3z
		 M15.6,76.9c-0.1,0-0.2,0-0.3-0.1c-0.4-0.2-0.6-0.6-0.4-1c0.2-0.6,0.5-1.2,0.8-1.7c0.2-0.3,0.7-0.5,1-0.2c0.3,0.2,0.5,0.7,0.2,1
		c-0.3,0.4-0.5,0.9-0.7,1.4C16.1,76.7,15.9,76.9,15.6,76.9z M78.6,75c-0.3,0-0.5-0.2-0.7-0.4c-0.2-0.5-0.5-1-0.8-1.5
		c-0.2-0.4-0.1-0.8,0.3-1c0.4-0.2,0.8-0.1,1,0.3c0.3,0.6,0.6,1.1,0.8,1.6c0.2,0.4,0,0.8-0.4,1C78.8,75,78.7,75,78.6,75z M17.4,73.9
		c-0.2,0-0.3,0-0.5-0.2c-0.3-0.3-0.4-0.7-0.1-1c0.1-0.1,0.2-0.2,0.2-0.3c0.1-0.1,0.2-0.3,0.3-0.3c0,0-0.1,0.1-0.1,0.3
		c0,0,0,0.1,0,0.1l0.1-0.4l0.2-0.7c0.6,0.1,1.2,0.3,1.2,1c0,0.4-0.2,0.6-0.5,1c-0.1,0.1-0.1,0.2-0.2,0.2
		C17.8,73.8,17.6,73.9,17.4,73.9z M15.7,72.4c-0.1,0-0.2,0-0.2,0l0,0c-0.5-0.2-1.1-0.4-1.6-0.7c-0.4-0.2-0.5-0.6-0.4-1
		c0.2-0.4,0.6-0.5,1-0.4c0.5,0.2,1,0.4,1.5,0.6c0.4,0.1,0.6,0.6,0.5,0.9C16.2,72.2,16,72.4,15.7,72.4z M77,72
		c-0.3,0-0.5-0.1-0.6-0.4c-0.1-0.2-0.2-0.3-0.3-0.5c-0.2-0.3-0.3-0.5-0.5-0.6c-0.3-0.2-0.5-0.7-0.2-1c0.2-0.3,0.6-0.4,1-0.3
		c0-0.3,0.2-0.5,0.5-0.6c0.5-0.1,1-0.3,1.6-0.5c0.4-0.1,0.8,0,1,0.4c0.1,0.4-0.1,0.8-0.4,1c-0.6,0.2-1.2,0.4-1.7,0.6c0,0,0,0,0,0
		c0.1,0.1,0.1,0.2,0.2,0.3c0.1,0.2,0.2,0.3,0.3,0.5c0.2,0.4,0.1,0.8-0.3,1C77.2,72,77.1,72,77,72z M12.5,70.9c-0.1,0-0.3,0-0.4-0.1
		c-0.5-0.3-1-0.7-1.5-1c-0.3-0.3-0.4-0.7-0.1-1c0.3-0.3,0.7-0.4,1-0.1c0.4,0.3,0.9,0.7,1.3,0.9c0.3,0.2,0.5,0.7,0.2,1
		C13,70.8,12.8,70.9,12.5,70.9z M80.2,68.9c-0.3,0-0.6-0.2-0.7-0.5c-0.2-0.4,0-0.8,0.4-1c0.5-0.2,1-0.5,1.5-0.7
		c0.3-0.2,0.8-0.1,1,0.3c0.2,0.4,0.1,0.8-0.2,1c-0.5,0.3-1.1,0.6-1.6,0.8C80.4,68.9,80.3,68.9,80.2,68.9z M9.8,68.8
		c-0.2,0-0.4-0.1-0.5-0.2c-0.4-0.4-0.8-0.9-1.2-1.3c-0.3-0.3-0.2-0.8,0.1-1c0.3-0.3,0.8-0.2,1,0.1c0.3,0.4,0.7,0.8,1.1,1.2
		c0.3,0.3,0.3,0.8,0,1.1C10.2,68.7,10,68.8,9.8,68.8z M83.2,67.1c-0.2,0-0.4-0.1-0.6-0.3c-0.3-0.3-0.2-0.8,0.1-1
		c0.4-0.3,0.8-0.7,1.2-1.1c0.3-0.3,0.7-0.3,1.1-0.1c0.3,0.3,0.3,0.7,0.1,1c-0.4,0.5-0.9,0.9-1.3,1.3C83.5,67.1,83.3,67.1,83.2,67.1z
		 M7.6,66.1c-0.2,0-0.5-0.1-0.6-0.3c-0.3-0.5-0.6-1-0.9-1.6c-0.2-0.4,0-0.8,0.3-1c0.4-0.2,0.8,0,1,0.3c0.3,0.5,0.5,1,0.8,1.4
		c0.2,0.3,0.1,0.8-0.2,1C7.9,66,7.8,66.1,7.6,66.1z M85.4,64.5c-0.1,0-0.3,0-0.4-0.1c-0.3-0.2-0.4-0.7-0.2-1
		c0.3-0.4,0.6-0.9,0.8-1.4c0.2-0.4,0.6-0.5,1-0.3c0.4,0.2,0.5,0.6,0.3,1c-0.3,0.6-0.6,1.1-0.9,1.6C85.9,64.4,85.7,64.5,85.4,64.5z
		 M6,63c-0.3,0-0.6-0.2-0.7-0.5c-0.2-0.5-0.4-1.1-0.6-1.7c-0.1-0.4,0.1-0.8,0.5-0.9C5.6,59.8,6,60,6.1,60.4c0.2,0.5,0.4,1.1,0.6,1.6
		c0.2,0.4,0,0.8-0.4,1C6.2,63,6.1,63,6,63z M87,61.5c-0.1,0-0.2,0-0.3,0c-0.4-0.1-0.6-0.6-0.4-1c0.2-0.5,0.4-1,0.5-1.6
		c0.1-0.4,0.5-0.6,0.9-0.5c0.4,0.1,0.6,0.5,0.5,0.9c-0.2,0.6-0.4,1.2-0.6,1.7C87.6,61.3,87.3,61.5,87,61.5z M5,59.7
		c-0.3,0-0.6-0.2-0.7-0.6c-0.1-0.6-0.2-1.2-0.3-1.8c-0.1-0.4,0.2-0.8,0.6-0.8c0.4-0.1,0.8,0.2,0.8,0.6c0.1,0.5,0.2,1.1,0.3,1.6
		c0.1,0.4-0.2,0.8-0.6,0.9C5.1,59.7,5,59.7,5,59.7z M88,58.1c-0.1,0-0.1,0-0.2,0c-0.4-0.1-0.6-0.5-0.6-0.9c0.1-0.4,0.2-0.8,0.3-1.3
		c0-0.1,0-0.2,0.1-0.4c0.1-0.4,0.5-0.7,0.9-0.6c0.4,0.1,0.7,0.5,0.6,0.9c0,0.1,0,0.3-0.1,0.4c-0.1,0.5-0.2,0.9-0.3,1.3
		C88.6,57.9,88.3,58.1,88,58.1z M4.5,56.3c-0.4,0-0.7-0.3-0.7-0.7c0-0.3,0-0.5,0-0.8c0-0.3,0-0.7,0-1c0-0.4,0.4-0.7,0.8-0.7
		c0.4,0,0.7,0.4,0.7,0.8c0,0.3,0,0.6,0,0.9c0,0.2,0,0.5,0,0.7C5.2,55.9,4.9,56.3,4.5,56.3C4.5,56.3,4.5,56.3,4.5,56.3z M88.6,54.7
		C88.5,54.7,88.5,54.7,88.6,54.7c-0.5,0-0.8-0.4-0.7-0.8c0-0.4,0.1-0.9,0.1-1.3c0-0.1,0-0.2,0-0.4c0-0.4,0.3-0.7,0.7-0.8
		c0.4,0,0.7,0.3,0.8,0.7c0,0.1,0,0.3,0,0.4c0,0.5,0,0.9,0,1.4C89.3,54.4,88.9,54.7,88.6,54.7z M4.7,52.8c0,0-0.1,0-0.1,0
		c-0.4-0.1-0.7-0.4-0.6-0.8c0.1-0.6,0.2-1.2,0.4-1.8c0.1-0.4,0.5-0.6,0.9-0.5c0.4,0.1,0.6,0.5,0.5,0.9c-0.1,0.5-0.3,1.1-0.3,1.6
		C5.4,52.6,5,52.8,4.7,52.8z M88.5,51.3c-0.4,0-0.7-0.3-0.7-0.7c-0.1-0.5-0.2-1.1-0.3-1.6c-0.1-0.4,0.2-0.8,0.6-0.9
		c0.4-0.1,0.8,0.2,0.9,0.6c0.1,0.6,0.2,1.2,0.3,1.8C89.3,50.8,89,51.2,88.5,51.3C88.5,51.3,88.5,51.3,88.5,51.3z M5.6,49.5
		c-0.1,0-0.2,0-0.3-0.1c-0.4-0.1-0.6-0.6-0.4-1c0.2-0.6,0.5-1.1,0.7-1.7c0.2-0.4,0.6-0.5,1-0.3c0.4,0.2,0.5,0.6,0.3,1
		c-0.2,0.5-0.5,1-0.7,1.5C6.1,49.3,5.9,49.5,5.6,49.5z M87.7,47.9c-0.3,0-0.6-0.2-0.7-0.5c-0.2-0.5-0.4-1-0.6-1.5
		c-0.2-0.4,0-0.8,0.4-1c0.4-0.2,0.8,0,1,0.4c0.2,0.5,0.5,1.1,0.6,1.7c0.1,0.4-0.1,0.8-0.5,0.9C87.9,47.9,87.8,47.9,87.7,47.9z
		 M7.1,46.4c-0.1,0-0.3,0-0.4-0.1c-0.3-0.2-0.4-0.7-0.2-1c0.3-0.5,0.7-1,1-1.5c0.3-0.3,0.7-0.4,1-0.1c0.3,0.3,0.4,0.7,0.1,1
		c-0.3,0.4-0.7,0.9-1,1.4C7.6,46.3,7.4,46.4,7.1,46.4z M86.3,44.7c-0.3,0-0.5-0.1-0.6-0.4c-0.3-0.5-0.6-1-0.9-1.4
		c-0.2-0.3-0.2-0.8,0.2-1c0.3-0.2,0.8-0.2,1,0.2c0.3,0.5,0.7,1,1,1.5c0.2,0.4,0.1,0.8-0.3,1C86.6,44.7,86.4,44.7,86.3,44.7z
		 M9.3,43.7c-0.2,0-0.4-0.1-0.5-0.2c-0.3-0.3-0.3-0.8,0-1.1c0.4-0.4,0.8-0.8,1.3-1.2c0.3-0.3,0.8-0.2,1,0.1c0.3,0.3,0.2,0.8-0.1,1.1
		c-0.4,0.4-0.8,0.8-1.2,1.2C9.6,43.6,9.5,43.7,9.3,43.7z M84.3,41.9c-0.2,0-0.4-0.1-0.6-0.2c-0.4-0.4-0.8-0.8-1.2-1.2
		c-0.3-0.3-0.3-0.7-0.1-1c0.3-0.3,0.7-0.3,1.1-0.1c0.4,0.4,0.9,0.8,1.3,1.3c0.3,0.3,0.2,0.8-0.1,1C84.7,41.8,84.5,41.9,84.3,41.9z
		 M11.9,41.4c-0.2,0-0.5-0.1-0.6-0.3c-0.2-0.3-0.2-0.8,0.2-1c0.4-0.3,0.8-0.6,1.3-0.9c0.1-0.1,0.2-0.1,0.2-0.1
		c0.4-0.2,0.8-0.1,1,0.2c0.2,0.3,0.1,0.8-0.2,1c-0.1,0-0.1,0.1-0.2,0.1c-0.4,0.3-0.8,0.5-1.2,0.8C12.2,41.3,12,41.4,11.9,41.4z
		 M28.7,39.8c-0.2,0-0.3,0-0.5-0.1c-0.4-0.1-0.7-0.5-0.6-0.9c0.1-0.3,0.2-0.5,0.5-0.5c0,0,0,0,0-0.1l1.4-0.6
		c0.2,0.5,0.3,0.8,0.3,1.1C29.8,39.3,29.4,39.8,28.7,39.8C28.7,39.8,28.7,39.8,28.7,39.8z M14.8,39.6c-0.3,0-0.6-0.2-0.7-0.4
		c-0.2-0.4,0-0.8,0.4-1c0.6-0.2,1.1-0.5,1.7-0.6c0.4-0.1,0.8,0.1,0.9,0.5c0.1,0.4-0.1,0.8-0.5,0.9c-0.5,0.2-1,0.4-1.5,0.6
		C15,39.6,14.9,39.6,14.8,39.6z M81.7,39.6c-0.2,0-0.3,0-0.4-0.1c-0.5-0.3-0.9-0.7-1.4-0.9c-0.4-0.2-0.5-0.7-0.2-1
		c0.2-0.4,0.7-0.5,1-0.2c0.5,0.3,1,0.6,1.5,1c0.3,0.2,0.4,0.7,0.2,1C82.2,39.5,82,39.6,81.7,39.6z M26.7,39.3c-0.1,0-0.2,0-0.2,0
		c-0.5-0.2-1.1-0.3-1.6-0.4c-0.4-0.1-0.7-0.5-0.6-0.9c0.1-0.4,0.5-0.6,0.9-0.6c0.6,0.1,1.2,0.3,1.7,0.5c0.4,0.1,0.6,0.5,0.5,0.9
		C27.3,39.1,27,39.3,26.7,39.3z M18.1,38.6c-0.4,0-0.7-0.3-0.7-0.6c-0.1-0.4,0.2-0.8,0.6-0.9c0.6-0.1,1.2-0.2,1.8-0.2
		c0.4,0,0.8,0.3,0.8,0.7c0,0.4-0.3,0.8-0.7,0.8c-0.6,0-1.1,0.1-1.6,0.2C18.2,38.6,18.2,38.6,18.1,38.6z M23.3,38.5c0,0-0.1,0-0.1,0
		c-0.6-0.1-1.1-0.1-1.7-0.2c-0.4,0-0.7-0.4-0.7-0.8c0-0.4,0.4-0.7,0.8-0.7c0.6,0,1.2,0.1,1.8,0.2c0.4,0.1,0.7,0.4,0.6,0.8
		C24,38.2,23.7,38.5,23.3,38.5z M63.8,38.2c-0.3,0-0.6-0.2-0.7-0.5c-0.1-0.2-0.1-0.3,0-0.5c-0.1,0-0.1,0-0.2,0
		c-0.4,0-0.7-0.4-0.7-0.8c0-0.1,0-0.2,0-0.3c0.1-0.5,0.1-1,0.2-1.4c0-0.4,0.4-0.7,0.8-0.7c0.4,0,0.7,0.4,0.7,0.8
		c0,0.5-0.1,1-0.2,1.6c0,0.1,0,0.1,0,0.2c0,0,0,0.1,0,0.1c0.2-0.1,0.6-0.3,0.9-0.5c0.1-0.1,0.3-0.1,0.4-0.2c0.4-0.2,0.8-0.1,1,0.3
		c0.2,0.4,0.1,0.8-0.3,1c-0.1,0.1-0.2,0.1-0.4,0.2c-0.5,0.3-0.9,0.5-1.3,0.7C64,38.2,63.9,38.2,63.8,38.2z M78.8,37.8
		c-0.1,0-0.2,0-0.3-0.1c-0.5-0.2-1-0.4-1.5-0.6c-0.4-0.1-0.6-0.6-0.5-0.9c0.1-0.4,0.6-0.6,0.9-0.5c0.6,0.2,1.1,0.4,1.7,0.7
		c0.4,0.2,0.5,0.6,0.3,1C79.3,37.6,79.1,37.8,78.8,37.8z M28.2,37.1c-0.3,0-0.6-0.2-0.7-0.6c-0.2-0.6-0.2-1.2-0.3-1.9
		c0-0.4,0.3-0.8,0.7-0.8c0.4,0,0.8,0.3,0.8,0.7c0,0.5,0.1,1,0.2,1.6c0.1,0.4-0.1,0.8-0.5,0.9C28.3,37.1,28.3,37.1,28.2,37.1z
		 M66.9,36.7c-0.3,0-0.6-0.2-0.7-0.6c-0.1-0.4,0.1-0.8,0.5-0.9c0.1,0,0.2,0,0.2-0.1c0.5-0.1,1.1-0.2,1.6-0.2c0.4,0,0.8,0.2,0.8,0.7
		c0,0.4-0.2,0.8-0.7,0.8c-0.5,0.1-1,0.1-1.5,0.2c0,0-0.1,0-0.1,0C67,36.7,66.9,36.7,66.9,36.7z M75.5,36.7c-0.1,0-0.1,0-0.2,0
		c-0.5-0.1-1.1-0.2-1.6-0.3c-0.4,0-0.7-0.4-0.7-0.8c0-0.4,0.4-0.7,0.8-0.7c0.6,0.1,1.2,0.2,1.8,0.3c0.4,0.1,0.7,0.5,0.6,0.9
		C76.1,36.4,75.8,36.7,75.5,36.7z M70.3,36.3c-0.4,0-0.7-0.3-0.7-0.7c0-0.4,0.3-0.8,0.7-0.8c0.6,0,1.2,0,1.8,0
		c0.4,0,0.7,0.4,0.7,0.8c0,0.4-0.4,0.7-0.8,0.7C71.5,36.2,70.9,36.2,70.3,36.3C70.4,36.3,70.3,36.3,70.3,36.3z M63.2,33.8
		c-0.4,0-0.7-0.3-0.7-0.7c0-0.5-0.1-1.1-0.2-1.6c-0.1-0.4,0.2-0.8,0.6-0.9c0.4-0.1,0.8,0.2,0.9,0.6c0.1,0.6,0.2,1.2,0.2,1.8
		C63.9,33.4,63.6,33.8,63.2,33.8C63.2,33.8,63.2,33.8,63.2,33.8z M28.1,33.7c0,0-0.1,0-0.1,0c-0.4-0.1-0.7-0.5-0.6-0.9l0-0.1
		c0.1-0.5,0.2-1.1,0.3-1.6c0.1-0.4,0.5-0.7,0.9-0.6c0.4,0.1,0.7,0.5,0.6,0.9C29,32,28.9,32.5,28.8,33l0,0.1
		C28.7,33.5,28.4,33.7,28.1,33.7z M62.6,30.4c-0.3,0-0.6-0.2-0.7-0.5c-0.2-0.5-0.4-1-0.6-1.5c-0.2-0.4,0-0.8,0.4-1
		c0.4-0.2,0.8,0,1,0.4c0.2,0.6,0.5,1.1,0.6,1.7c0.1,0.4-0.1,0.8-0.5,0.9C62.7,30.4,62.6,30.4,62.6,30.4z M28.8,30.3
		c-0.1,0-0.1,0-0.2,0c-0.4-0.1-0.6-0.5-0.5-0.9c0.2-0.6,0.4-1.2,0.6-1.7c0.2-0.4,0.6-0.5,1-0.4c0.4,0.2,0.5,0.6,0.4,1
		c-0.2,0.5-0.4,1-0.6,1.5C29.4,30.1,29.1,30.3,28.8,30.3z M61.2,27.2c-0.3,0-0.5-0.1-0.6-0.4c-0.3-0.5-0.6-0.9-0.9-1.4
		c-0.3-0.3-0.2-0.8,0.1-1c0.3-0.3,0.8-0.2,1,0.1c0.4,0.5,0.7,1,1,1.5c0.2,0.4,0.1,0.8-0.3,1C61.4,27.2,61.3,27.2,61.2,27.2z
		 M30.2,27.2c-0.1,0-0.3,0-0.4-0.1c-0.3-0.2-0.5-0.7-0.2-1c0.3-0.5,0.7-1,1.1-1.5c0.3-0.3,0.7-0.4,1-0.1c0.3,0.3,0.4,0.7,0.1,1
		c-0.3,0.4-0.7,0.9-0.9,1.3C30.7,27.1,30.4,27.2,30.2,27.2z M59,24.5c-0.2,0-0.4-0.1-0.5-0.2c-0.4-0.4-0.8-0.8-1.2-1.1
		c-0.3-0.3-0.4-0.7-0.1-1c0.3-0.3,0.7-0.4,1-0.1c0.5,0.4,0.9,0.8,1.3,1.2c0.3,0.3,0.3,0.8,0,1.1C59.4,24.4,59.2,24.5,59,24.5z
		 M32.4,24.5c-0.2,0-0.4-0.1-0.5-0.2c-0.3-0.3-0.3-0.8,0-1c0.4-0.4,0.9-0.8,1.4-1.2c0.3-0.3,0.8-0.2,1,0.1c0.3,0.3,0.2,0.8-0.1,1
		c-0.4,0.4-0.9,0.7-1.3,1.1C32.7,24.4,32.5,24.5,32.4,24.5z M35.1,22.3c-0.2,0-0.5-0.1-0.6-0.3c-0.2-0.3-0.1-0.8,0.2-1
		c0.2-0.2,0.5-0.3,0.8-0.5c0.3-0.2,0.5-0.3,0.8-0.5c0.4-0.2,0.8-0.1,1,0.3c0.2,0.4,0.1,0.8-0.3,1c-0.2,0.1-0.5,0.3-0.7,0.4
		c-0.2,0.2-0.5,0.3-0.7,0.5C35.4,22.3,35.2,22.3,35.1,22.3z M56.4,22.3c-0.1,0-0.3,0-0.4-0.1c-0.5-0.3-0.9-0.6-1.4-0.9
		c-0.4-0.2-0.5-0.6-0.3-1c0.2-0.4,0.6-0.5,1-0.3c0.5,0.3,1.1,0.6,1.6,0.9c0.3,0.2,0.4,0.7,0.2,1C56.9,22.2,56.6,22.3,56.4,22.3z
		 M38.1,20.7c-0.3,0-0.6-0.2-0.7-0.5c-0.2-0.4,0-0.8,0.4-1c0.5-0.2,1.1-0.4,1.7-0.6c0.4-0.1,0.8,0.1,0.9,0.5
		c0.1,0.4-0.1,0.8-0.5,0.9c-0.5,0.2-1.1,0.4-1.6,0.6C38.3,20.7,38.2,20.7,38.1,20.7z M53.3,20.6c-0.1,0-0.2,0-0.3-0.1
		c-0.5-0.2-1-0.4-1.6-0.6c-0.4-0.1-0.6-0.5-0.5-0.9c0.1-0.4,0.5-0.6,0.9-0.5c0.6,0.2,1.2,0.4,1.7,0.6c0.4,0.2,0.6,0.6,0.4,1
		C53.9,20.5,53.6,20.6,53.3,20.6z M41.4,19.7c-0.3,0-0.7-0.2-0.7-0.6c-0.1-0.4,0.2-0.8,0.6-0.9c0.6-0.1,1.2-0.2,1.8-0.3
		c0.4-0.1,0.8,0.2,0.8,0.6c0.1,0.4-0.2,0.8-0.6,0.8c-0.6,0.1-1.1,0.2-1.6,0.3C41.5,19.7,41.5,19.7,41.4,19.7z M50,19.6
		c0,0-0.1,0-0.2,0c-0.5-0.1-1.1-0.2-1.6-0.3c-0.4-0.1-0.7-0.4-0.6-0.8c0-0.4,0.4-0.7,0.8-0.6c0.6,0.1,1.2,0.2,1.8,0.3
		c0.4,0.1,0.7,0.5,0.6,0.9C50.7,19.4,50.4,19.6,50,19.6z M44.9,19.2c-0.4,0-0.7-0.3-0.7-0.7c0-0.4,0.3-0.8,0.7-0.8c0.3,0,0.6,0,1,0
		c0,0,0,0,0,0c0.3,0,0.5,0,0.8,0c0.4,0,0.7,0.4,0.7,0.8c0,0.4-0.4,0.7-0.8,0.7c-0.3,0-0.5,0-0.8,0C45.5,19.2,45.2,19.2,44.9,19.2
		C44.9,19.2,44.9,19.2,44.9,19.2z"/>
</g>
<g>
	<path class="st2" d="M44.6,127.2c-0.2,0-0.3,0.1-0.3,0.1c-0.4,0.2-0.8,0.4-1.2,0.7c-0.2,0.1-0.4,0.2-0.6,0.2
		c-0.4,0.1-0.8,0.3-1.2,0.5c-0.1,0.1-0.2,0.1-0.4,0.1c-0.4,0-0.8,0.1-1.2,0.3c-0.1,0-0.2,0.1-0.3,0c-0.3-0.1-0.6,0-0.9,0.1
		c-0.2,0-0.3,0.1-0.4-0.1c0,0,0-0.1-0.1-0.1c-0.3,0-0.4-0.2-0.6-0.3c-0.2-0.1-0.2-0.2-0.3-0.4c0-0.3,0.1-0.6,0.4-0.8
		c0.1-0.1,0.2-0.2,0.4-0.3c0.3-0.3,0.7-0.4,1.1-0.6c0.1,0,0.2-0.1,0.2-0.1c0.1-0.1,0.2-0.1,0.4-0.2c0.1-0.1,0.3-0.1,0.4-0.2
		c0.5-0.3,1.1-0.5,1.6-0.8c0.4-0.2,0.9-0.5,1.3-0.7c0.5-0.2,0.9-0.5,1.4-0.7c0.3-0.1,0.4-0.3,0.4-0.6c0-0.2,0-0.3,0-0.6
		c-0.2,0-0.4,0.1-0.6,0.1c-0.4,0.1-0.8,0.2-1.2,0.3c-0.4,0.1-0.9,0.3-1.3,0.4c-0.2,0.1-0.4,0.1-0.6,0.2c-0.1,0-0.2,0.1-0.2,0.1
		c-0.3,0-0.6,0.1-1,0.2c-0.5,0.1-1,0-1.4-0.1c-0.2-0.1-0.4-0.1-0.6-0.2c-0.2-0.1-0.4-0.2-0.6-0.3c-0.3-0.2-0.4-0.6-0.4-0.9
		c0-0.1,0.1-0.3,0.1-0.5c0,0,0.1-0.1,0.2-0.1c0.4,0,0.8-0.1,1.1-0.1c0.2,0,0.4-0.1,0.6-0.1c0.8-0.3,1.6-0.5,2.4-0.7
		c0.3-0.1,0.6-0.1,0.9-0.2c0.4-0.1,0.8-0.2,1.2-0.2c0.5-0.1,0.9-0.1,1.4-0.2c0.2,0,0.3-0.1,0.4-0.3c0.1-0.3,0.1-0.6,0.1-0.8
		c0-0.1,0.1-0.2,0.1-0.3c0-0.3,0.1-0.7,0.1-1c0-0.1-0.1-0.2-0.1-0.3c-0.1-0.1-0.2-0.2-0.3-0.1c-0.3,0.2-0.6,0.1-0.9,0.2
		c-0.1,0-0.3,0-0.4,0.1c-0.2,0.1-0.4,0.1-0.6,0c-0.1,0-0.2,0-0.3-0.1c0-0.1,0-0.1,0-0.2c0.2-0.7,0.3-1.4,0.6-2.1
		c0.1-0.2,0.1-0.5,0.3-0.6c0-0.2,0.2-0.4,0.2-0.6c0-0.2,0.2-0.3,0.3-0.5c0.1-0.1,0.2-0.3,0.3-0.5c0-0.1,0.1-0.2,0.2-0.3
		c0.2,0.1,0.2,0,0.3-0.2c0.1-0.3,0.3-0.5,0.4-0.8c0.1-0.2,0.2-0.5,0.3-0.7c0.1-0.1,0.1-0.3,0.1-0.4c-0.4-0.3-0.8-0.6-0.9-1.1
		c-0.1-0.3,0.1-0.7,0.4-0.9c0.1-0.1,0.2-0.1,0.3-0.2c0.3,0.2,0.5,0.1,0.8-0.1c0,0,0.1-0.1,0.1-0.1c0.3-0.1,0.3-0.4,0.4-0.6
		c0.1-0.4,0.1-0.8,0.3-1.2c0-0.1,0-0.2,0-0.2c-0.1-0.1,0-0.3,0-0.4c0.1-0.2,0.2-0.4,0.2-0.6c0-0.2,0-0.5,0.1-0.7
		c0-0.2,0-0.3-0.1-0.5c-0.1-0.3-0.2-0.6-0.1-0.9c0.1-0.1,0.1-0.3,0.3-0.2c0.4-0.2,0.7,0.2,1,0.2c0.1,0,0.1,0.1,0.2,0.2
		c0.3,0.2,0.4,0.6,0.6,0.9c0.2,0.3,0.4,0.7,0.3,1.1c0,0.2,0,0.3,0.1,0.5c0.1,0.3,0,0.7,0,1c0,0.2,0,0.3,0,0.5c0.1,0,0.1,0,0.2,0
		c0.5,0,0.9,0,1.4,0.2c0.3,0.1,0.6,0.2,0.8,0.3c0.1,0,0.2,0.2,0.2,0.2c0,0.2,0.1,0.2,0.2,0.3c0.1,0,0.1,0.1,0.1,0.1
		c0.1,0.2,0.2,0.3,0.3,0.5c0,0.1,0,0.2,0,0.2c-0.1,0.2-0.1,0.5-0.1,0.7c0,0.4-0.2,0.7-0.3,1c-0.2,0.4-0.4,0.9-0.5,1.3
		c-0.1,0.2-0.1,0.3-0.2,0.5c-0.1,0.3-0.2,0.6-0.2,0.9c0,0,0,0,0.1,0c0.1-0.1,0.3-0.3,0.5-0.2c0,0,0.1,0,0.1-0.1
		c0.2-0.2,0.5-0.4,0.8-0.4c0,0,0.1,0,0.1-0.1c0.2-0.3,0.5-0.4,0.8-0.6c0.6-0.4,1.2-0.7,1.8-1c0.2-0.1,0.3-0.2,0.5-0.2
		c0,0.1,0,0.1,0.1,0.2c0,0.1,0,0.1,0.1,0.2c0.2,0.1,0.2,0.3,0.2,0.5c0,0.4-0.1,0.8-0.2,1.2c0,0.1-0.1,0.2-0.1,0.3
		c0,0.1-0.1,0.2-0.1,0.2c0,0,0,0.1,0,0.1c-0.1,0.2-0.3,0.1-0.3,0.4c0,0.2-0.2,0.3-0.3,0.4c-0.1,0.1-0.2,0.2-0.4,0.4
		c-0.1,0.1-0.1,0.1-0.2,0.2c-0.2,0.3-0.5,0.5-0.8,0.7c-0.3,0.1-0.6,0.3-0.9,0.4c0,0-0.1,0.1-0.1,0.1c-0.2,0.2-0.5,0.3-0.8,0.4
		c-0.2,0-0.5,0.1-0.7,0.1c-0.2,0-0.4,0-0.5-0.1c-0.1,0-0.1-0.1-0.2-0.1c-0.2-0.1-0.3-0.2-0.4-0.4c-0.2-0.2-0.3-0.4-0.5-0.6
		c-0.2-0.4-0.4-0.7-0.4-1.2c0-0.1,0-0.1,0-0.2c-0.3-0.2-0.2-0.5-0.3-0.8c0-0.2,0-0.4-0.1-0.7c0-0.2,0-0.5,0.1-0.7
		c0.1-0.4,0.2-0.7,0.4-1.1c0.1-0.2,0.2-0.4,0.3-0.7c0.1-0.2,0.1-0.5,0.2-0.7c0,0,0-0.1,0-0.2c-0.1,0-0.1,0-0.2,0
		c-0.2,0.1-0.4,0.1-0.6,0.3c-0.1,0.1-0.2,0.2-0.3,0.4c-0.1,0.1-0.1,0.2-0.1,0.4c0,0.1-0.1,0.1-0.1,0.2c-0.1,0.5-0.4,1-0.5,1.5
		c0,0.1-0.1,0.1-0.1,0.2c-0.2,0.4-0.3,0.8-0.5,1.2c-0.3,0.6-0.6,1.2-0.9,1.8c-0.2,0.4-0.4,0.7-0.6,1.1c0,0,0,0,0,0.1
		c0.2,0.2,0.3,0.4,0.6,0.4c0,0,0.1,0,0.1,0c0.1,0.3,0.5,0.5,0.5,0.9c0,0.2,0,0.4,0.1,0.6c0.1,0.3,0.1,0.7,0,1c0,0,0,0.1,0,0.1
		c0.3,0.1,0.6,0.1,0.9,0c0.1,0,0.2,0,0.3-0.1c0.4-0.1,0.8-0.1,1.2-0.2c0.3,0,0.6-0.1,0.9-0.1c0.4-0.1,0.7-0.2,1-0.3
		c0.3-0.1,0.6-0.3,0.9-0.4c0.2-0.1,0.4,0,0.7,0.1c0.5,0.2,0.8,0.6,1.2,0.9c0.3,0.2,0.3,0.5,0.3,0.7c0,0.1,0,0.2,0,0.3
		c-0.1,0.1-0.2,0.2-0.2,0.2c-0.1,0.1-0.1,0.1-0.2,0.2c-0.2,0.1-0.4,0.2-0.6,0.3c0,0-0.1,0-0.1,0c-0.4,0.1-0.9,0.1-1.3,0.1
		c-0.9,0.1-1.8,0.2-2.6,0.3c-0.1,0-0.1,0-0.1,0c-0.3,0.1-0.6,0.1-1,0.2c0,0-0.1,0-0.1,0c-0.2-0.1-0.4,0-0.6,0
		c0.2,0.1,0.3,0.3,0.5,0.4c0,0,0.1,0.1,0.1,0.1c0.2,0.4,0.2,0.7,0.1,1.1c-0.1,0.3-0.1,0.3,0.2,0.4c0.3,0.2,0.6,0.3,0.9,0.4
		c0.7,0.2,1.3,0.5,2,0.5c0.3,0,0.5,0,0.8,0c0.1,0,0.1,0,0.2,0c0.7,0,1.3,0,2,0c0.1,0,0.1,0,0.2,0c0,0,0.1,0.1,0.1,0.1
		c-0.1,0.2-0.1,0.4-0.3,0.5c0,0-0.1,0.1-0.1,0.1c-0.3,0-0.4,0.2-0.6,0.4c-0.2,0.1-0.4,0.3-0.5,0.5c-0.1,0.2-0.2,0.2-0.4,0.3
		c-0.1,0-0.2,0-0.3,0.1c-0.2,0.2-0.5,0.2-0.8,0.2c-0.6,0-1.2-0.1-1.8-0.3c-0.4-0.1-0.8-0.2-1.2-0.3c0,0-0.1,0-0.1,0
		c-0.4-0.3-0.9-0.3-1.3-0.5c-0.1-0.1-0.3-0.1-0.5-0.1c0,0.2-0.1,0.3-0.1,0.5c0,0.3,0,0.7,0,1c0,0.4,0,0.7-0.1,1.1
		c0,0.5-0.1,0.9-0.1,1.4c0,0.4-0.1,0.8-0.4,1.2c-0.2,0.3-0.5,0.3-0.8,0.1c-0.5-0.3-0.7-0.7-0.9-1.2c-0.1-0.3-0.1-0.6-0.1-1
		c0-0.1,0-0.1,0-0.2c-0.1-0.3,0-0.7,0.1-1C44.6,127.9,44.6,127.6,44.6,127.2z"/>
	<path class="st2" d="M121,125.8c-0.1,0-0.1,0-0.2,0.1c-0.1-0.1-0.1-0.3-0.2-0.4c-0.1-0.1-0.1-0.2,0-0.4c0-0.2,0-0.4,0-0.6
		c0-0.2,0-0.3,0.1-0.4c0.2-0.2,0.5-0.5,0.7-0.7c0.1-0.1,0.3-0.1,0.4-0.2c0.4-0.2,0.9-0.4,1.2-0.7c0.2-0.1,0.3-0.3,0.5-0.4
		c0.4-0.3,0.7-0.7,1-1c0.2-0.2,0.4-0.5,0.5-0.7c0.1-0.1,0.2-0.3,0.3-0.4c0-0.1,0-0.1,0-0.2c-0.2,0-0.4,0.1-0.5,0.1
		c-0.4,0.1-0.9,0.1-1.3,0c0,0-0.1,0-0.1,0c-0.4,0.1-0.7-0.1-1-0.1c-0.2-0.1-0.5-0.1-0.8-0.2c-0.1,0-0.1-0.1-0.2-0.1
		c-0.3-0.3-0.4-0.6-0.6-0.9c0-0.1,0-0.2,0-0.2c0-0.2,0-0.4,0.1-0.5c0-0.1,0.1-0.3,0.3-0.4c0.1,0,0.1-0.1,0.1-0.1
		c0.1-0.2,0.3-0.2,0.5-0.3c0.1,0,0.2,0,0.2,0.1c0.1,0.2,0.3,0.2,0.5,0.2c0.2,0,0.5,0,0.7,0.1c0.2,0.1,0.5,0,0.7,0
		c0.2,0,0.5-0.1,0.7-0.1c0.4,0,0.7,0,1.1-0.1c0.1,0,0.2,0,0.3,0c0.3,0,0.5-0.1,0.6-0.4c0.1-0.7,0.3-1.4,0.4-2.1c0-0.1,0-0.2,0-0.2
		c0-0.2-0.1-0.3-0.3-0.2c-0.3,0-0.6,0-0.9-0.2c-0.2-0.1-0.4-0.1-0.6-0.2c-0.4-0.1-0.8-0.3-1.1-0.6c-0.3-0.2-0.4-0.4-0.5-0.7
		c-0.1-0.3-0.3-0.6-0.3-1c0-0.3,0.1-0.6,0.2-0.8c0.2-0.2,0.4-0.4,0.7-0.4c0.2,0,0.4,0,0.6,0.1c0.3,0.2,0.6,0.4,1.1,0.3
		c0.4-0.1,0.8,0,1.2,0c0.3,0,0.6-0.1,0.8-0.1c0.7,0,1.3-0.1,2,0c0.1,0,0.1,0,0.2,0c0.5-0.1,1-0.1,1.5,0c0.1,0,0.3,0,0.4,0
		c0.1,0,0.2,0,0.4,0c0.2,0,0.5,0,0.7,0.1c0.3,0.1,0.6,0.1,0.9,0.1c0.1,0,0.3,0,0.4,0c0,0,0.1,0.1,0.2,0.2c0.1-0.2,0.2-0.2,0.3-0.1
		c0,0,0.1,0,0.2,0c0.2,0,0.3,0,0.5,0.1c0.1,0,0.2,0.1,0.2,0c0.2-0.1,0.3,0,0.5,0.1c0.1,0,0.1,0.1,0.2,0.1c0.4,0.1,0.6,0.4,0.7,0.8
		c0,0.1,0.1,0.3,0.1,0.4c-0.1,0.1-0.2,0.2-0.3,0.3c-0.1,0.1-0.1,0.2-0.3,0.1c-0.1-0.1-0.3-0.1-0.4-0.1c-0.1,0.1,0,0.1,0,0.3
		c-0.2,0-0.3,0-0.5,0c-0.2,0-0.4-0.1-0.5,0c0,0-0.1,0-0.1,0c-0.4-0.1-0.8,0-1.2,0c-0.1,0-0.1,0-0.2,0c-0.1,0-0.3-0.1-0.4-0.1
		c-0.1,0-0.3,0-0.4,0c0,0,0,0-0.1,0c-0.3,0.2-0.6,0.1-0.9,0.1c-0.1,0-0.3,0-0.4,0c-0.2,0-0.4,0.1-0.6,0.1c-0.2,0-0.4,0.1-0.6,0.2
		c-0.2,0-0.3,0.1-0.5,0c-0.2,0-0.4,0.1-0.6,0.2c0,0.1,0,0.3,0.1,0.4c0.1,0.1,0,0.3,0,0.4c-0.1,0.4-0.2,0.8-0.2,1.2
		c0,0.2,0,0.4-0.1,0.5c0,0.1-0.1,0.1-0.1,0.2c-0.1,0.2,0,0.4,0.2,0.4c0.3,0,0.6,0,0.9,0c0.2,0,0.4,0,0.6,0c0.2,0,0.3,0,0.5,0.1
		c0.1,0,0.2,0,0.2,0c0.5-0.1,1,0,1.4,0c0.3,0,0.5,0,0.8,0c0.2,0,0.5,0,0.7,0.1c0.2,0,0.3,0,0.4-0.1c0,0,0.1-0.1,0.1-0.1
		c0.3,0,0.6,0,0.9,0c0.1,0,0.2,0.1,0.2,0.1c0.1,0.1,0.2,0.2,0.3,0.2c0.2,0.1,0.4,0.2,0.5,0.5c0,0.1,0.2,0.1,0.3,0.2
		c-0.1,0.2,0.2,0.3,0.3,0.4c0.2,0.2,0.3,0.4,0.2,0.7c-0.1,0.2-0.2,0.4-0.4,0.5c-0.4,0.2-0.8,0.2-1.1,0.2c0,0-0.1,0-0.1,0
		c-0.5,0.1-0.9,0-1.4,0c-0.2,0-0.4,0-0.6,0c-0.4,0-0.8-0.1-1.3-0.1c-0.8,0-1.6-0.1-2.3-0.2c-0.5,0-0.9,0-1.4,0c-0.1,0-0.1,0-0.2,0.1
		c0.3,0.2,0.5,0.5,0.8,0.7c0.1,0,0.1,0.1,0.2,0.1c0.3,0.3,0.6,0.5,0.9,0.7c0.2,0.1,0.3,0.2,0.5,0.3c0.1,0.1,0.2,0.1,0.3,0.2
		c0,0,0.1,0,0.1,0.1c0.3,0.3,0.7,0.4,1,0.7c0.7,0.5,1.5,0.8,2.2,1.2c0.4,0.2,0.9,0.3,1.3,0.5c0.1,0,0.1,0,0.2,0
		c0.5,0,0.9,0.2,1.3,0.4c0.3,0.2,0.6,0.4,0.8,0.7c0.2,0.2,0.4,0.5,0.5,0.7c0.2,0.3,0.4,0.6,0.4,0.9c0,0.1,0,0.1,0,0.2
		c-0.1,0.2-0.2,0.5-0.4,0.6c-0.1,0.1-0.2,0.1-0.4,0.1c-0.1,0-0.2,0-0.3,0c-0.5-0.2-1-0.2-1.5-0.4c-0.3-0.1-0.6-0.3-0.9-0.4
		c-0.3-0.1-0.6-0.3-1-0.4c-0.3-0.3-0.9-0.4-1.2-0.7c-0.4-0.3-0.8-0.4-1.2-0.6c-0.4-0.2-0.8-0.5-1.2-0.7c-0.2-0.1-0.3-0.2-0.5-0.3
		c-0.1-0.1-0.3-0.1-0.4-0.2c-0.2-0.2-0.4-0.3-0.7-0.5c-0.1,0-0.2-0.1-0.3-0.2c-0.3-0.2-0.5-0.4-0.8-0.6c-0.2-0.1-0.3-0.3-0.5-0.4
		c-0.1,0-0.1-0.1-0.2-0.2c-0.1-0.1-0.2-0.2-0.3-0.3c-0.1-0.1-0.2-0.2-0.3-0.3c-0.2,0-0.3,0.1-0.4,0.3c-0.3,0.5-0.6,1-1,1.5
		c-0.2,0.3-0.5,0.5-0.7,0.8c-0.2,0.2-0.3,0.3-0.5,0.5c-0.4,0.4-0.8,0.7-1.2,1c-0.1,0.1-0.2,0.1-0.3,0.1c-0.2,0-0.4,0.2-0.6,0.3
		c-0.1,0.1-0.3,0.1-0.5,0.1c-0.3,0-0.6,0-0.9,0.1C121.1,126.1,121,126,121,125.8z M134.8,117C134.8,117.1,134.8,117.1,134.8,117
		c0,0.1,0.1,0.1,0.2,0.1c0,0,0,0,0,0C134.9,117.1,134.9,117.1,134.8,117z"/>
	<path class="st2" d="M86.4,115.1c0.3-0.1,0.6-0.4,1-0.4c0.1,0,0.3-0.1,0.5-0.2c0-0.3,0-0.6,0-0.9c0-0.2,0-0.4,0.1-0.6
		c0.1-0.3,0.1-0.6,0.2-0.9c0.1-0.3,0.1-0.5,0.2-0.8c0.2-0.4,0.2-0.9,0.2-1.3c0-0.3,0.1-0.7,0.2-1c0.1-0.2,0.3-0.5,0.5-0.6
		c0.2-0.2,0.7,0,0.8,0.3c0.1,0.2,0.2,0.4,0.3,0.7c0.1,0.3,0.2,0.6,0.2,0.9c0,0.1,0,0.1,0.1,0.2c0,0.1,0.1,0.1,0.1,0.2
		c0,0.4-0.1,0.9-0.1,1.3c0,0.1-0.2,0.3-0.2,0.4c-0.1,0.4-0.3,0.7-0.4,1.1c-0.2,0.5-0.3,1-0.3,1.5c0,0.2-0.1,0.4-0.1,0.5
		c-0.1,0.4-0.1,0.8-0.3,1.2c-0.1,0.3-0.3,0.6-0.3,0.9c0,0.1-0.1,0.2-0.2,0.3c-0.5,0.4-1,0.6-1.5,0.8c-0.2,0.1-0.5,0.1-0.8,0.2
		c-0.2,0.1-0.4,0.2-0.6,0.2c-0.2,0.1-0.4,0.1-0.6,0.1c-0.4,0.1-0.8,0.1-1.1,0.1c-0.4,0.1-0.8,0-1.2-0.1c-0.2-0.1-0.4-0.1-0.7-0.1
		c0,0.7-0.3,1.4-0.2,2.2c0.2,0,0.5,0,0.7-0.1c0.3-0.1,0.6-0.2,0.8-0.1c0,0,0.1,0,0.2,0c0.2-0.1,0.4-0.1,0.6-0.2
		c0.2-0.1,0.3-0.2,0.5-0.1c0.2,0,0.3-0.1,0.5-0.2c0.2-0.1,0.3-0.1,0.5-0.1c0.3,0,0.7-0.2,0.9-0.4c0.2-0.2,0.4-0.2,0.7-0.2
		c0.3,0,0.5,0,0.8,0.1c0.6,0.1,1.1,0.3,1.4,0.8c0.1,0.2,0.3,0.5,0.2,0.7c0,0,0,0.1,0,0.2c0,0.1,0,0.2,0,0.3c-0.1,0.3-0.1,0.7-0.2,1
		c-0.3,0.7-0.2,1.4-0.4,2.1c-0.1,0.2,0,0.5-0.1,0.8c-0.1,0.5-0.1,0.9-0.2,1.4c0,0.3,0,0.7-0.2,1c-0.1,0.2,0,0.5-0.3,0.7
		c0,0.2-0.1,0.4-0.1,0.6c0,0.3-0.1,0.6-0.2,0.9c-0.1,0.2-0.3,0.4-0.5,0.5c0,0-0.1,0-0.2,0.1c-0.1,0-0.2-0.2-0.3-0.1
		c-0.1,0-0.2,0-0.3-0.1c-0.4-0.4-0.6-0.8-0.6-1.3c0-0.6,0.1-1.2,0.2-1.7c0.1-0.4,0.1-0.9,0.2-1.3c0-0.2,0.1-0.4,0.1-0.6
		c0.1-0.8,0.2-1.5,0.2-2.3c0-0.3,0.1-0.6,0.1-1c0-0.2,0.1-0.4,0.1-0.6c-0.1,0-0.2,0-0.2,0c-0.4,0.1-0.8,0.2-1.2,0.3
		c-0.3,0.1-0.7,0.2-1,0.3c-0.5,0.2-1,0.3-1.5,0.4c-0.1,0-0.3,0-0.4,0c-0.2,0-0.3,0-0.5,0c-0.2,0-0.4-0.1-0.7-0.2
		c0,0.2,0,0.5-0.1,0.7c-0.1,0.3-0.1,0.6-0.2,0.9c-0.1,0.2-0.2,0.5-0.2,0.7c0,0.3-0.2,0.6-0.3,0.9c-0.1,0.3-0.2,0.5-0.3,0.8
		c-0.1,0.2-0.1,0.5-0.3,0.7c-0.1,0.1-0.2,0.3-0.3,0.4c-0.3,0.1-0.4-0.3-0.7-0.2c-0.1-0.1-0.3-0.3-0.4-0.4c-0.2-0.2-0.3-0.5-0.3-0.8
		c0-0.5,0.1-1,0.2-1.5c0.1-0.4,0.2-0.8,0.3-1.3c0-0.3,0.2-0.7,0.2-1c0-0.2,0.1-0.3,0.1-0.5c0.1-0.3,0.1-0.7,0.2-1
		c0.1-0.6,0.2-1.3,0.3-1.9c0.1-0.8,0.2-1.5,0.2-2.3c0-0.5,0.1-1.1,0-1.7c0,0,0-0.1,0-0.1c0.1-0.6,0-1.2,0.1-1.8c0-0.3-0.1-0.7-0.1-1
		c0,0,0,0,0-0.1c-0.3-0.3-0.2-0.6-0.2-0.9c0-0.3,0-0.5,0.1-0.8c0.1-0.1,0.2-0.3,0.2-0.4c0.1,0,0.1,0,0.2,0c0.6-0.1,0.9,0.3,1.1,0.7
		c0,0.1,0.1,0.2,0.2,0.3c0.2,0.3,0.3,0.6,0.5,0.8c0.1,0.1,0,0.2,0.1,0.3c0,0,0,0,0,0.1c0.1,0.3,0.1,0.6,0.2,0.9c0,0.1,0,0.2,0,0.3
		c0,0.5-0.1,1,0,1.4c0,0.2,0,0.4-0.1,0.6c0,0.1,0,0.3,0,0.3c0.1,0.1,0.3,0.3,0.5,0.3c0.5,0,1-0.1,1.4-0.3c0.2-0.1,0.4-0.1,0.5-0.3
		c0,0,0.1,0,0.1,0c0.2,0,0.5-0.1,0.6-0.3c0.1-0.1,0.3-0.2,0.3-0.4C86.2,115.2,86.3,115.1,86.4,115.1c0,0.1-0.1,0.1-0.1,0.2
		C86.5,115.2,86.4,115.1,86.4,115.1z"/>
	<path class="st2" d="M72.3,119c0.1,0.2,0.1,0.3,0.2,0.4c0,0,0,0.1,0,0.1c-0.1,0.3,0,0.6,0,0.8c0,0.1,0,0.2-0.1,0.3
		c-0.2,0.2-0.5,0.4-0.8,0.4c-0.1,0-0.2,0.1-0.4,0.2c-0.3,0.2-0.6,0.3-0.9,0.3c-0.2,0-0.5,0.1-0.7,0.2c-0.3,0.1-0.6,0.1-0.9,0.2
		c-0.1,0-0.2,0-0.3,0c-0.3,0.1-0.5,0.1-0.8,0.1c-0.2,0-0.3,0.1-0.5,0.1c-0.3,0-0.6,0.1-0.9,0.1c-0.4,0-0.8,0.1-1.2,0.1
		c-0.3,0-0.6,0.1-0.8,0.1c-0.3,0-0.6,0-0.9,0c-0.1,0-0.2,0-0.3,0c-0.2,0-0.4,0-0.6,0c-0.3,0-0.6,0-0.9-0.3c-0.1,0-0.2-0.1-0.2-0.1
		c-0.2-0.1-0.4-0.1-0.5-0.2c-0.1,0-0.1-0.2-0.2-0.2c-0.3-0.2-0.5-0.5-0.6-0.7c-0.1-0.3-0.2-0.6,0-0.9c0-0.1,0.1-0.2,0.1-0.2
		c0.1-0.3,0.5-0.5,0.8-0.3c0.6,0.4,1.3,0.4,2,0.4c0.3,0,0.7-0.1,1-0.1c0.4,0,0.8-0.1,1.2-0.1c0.2,0,0.4,0,0.6-0.1
		c0.2,0,0.3-0.1,0.5-0.1c0.1,0,0.2,0,0.3,0c0.2,0,0.4,0,0.5-0.1c0.1,0,0.1,0,0.2-0.1c0.1,0,0.2-0.1,0.2-0.1c0.5,0,1-0.2,1.5-0.2
		c0.4,0,0.7-0.1,1-0.3c0.1-0.1,0.3-0.1,0.5-0.1c0.4,0,0.7,0,1.1,0C71.5,118.9,71.9,119,72.3,119z"/>
	<g>
		<path class="st2" d="M108.9,119c-0.5,0-1,0.1-1.4,0.1c-0.4,0-0.8,0-1.2,0.1c-0.4,0-0.9,0.1-1.3,0.1c-0.3,0-0.4,0.2-0.5,0.4
			c-0.1,0.3-0.3,0.6-0.5,0.9c-0.3,0.5-0.7,1-1,1.5c-0.3,0.5-0.7,0.9-1.1,1.2c-0.2,0.1-0.3,0.3-0.5,0.4c-0.3,0.3-0.6,0.4-0.9,0.6
			c-0.2,0.1-0.3,0.2-0.5,0.3c-0.1,0-0.1,0.1-0.2,0.1c-0.2,0-0.3,0.1-0.4,0.2c-0.1,0.1-0.2,0.2-0.4,0.1c0,0-0.1,0-0.2,0
			c-0.2,0.2-0.5,0.3-0.7,0.4c-0.2-0.1-0.4-0.1-0.5-0.2c0,0-0.1-0.1-0.1-0.1c-0.2-0.2-0.3-0.5-0.2-0.8c0,0,0.1-0.1,0.2-0.1
			c-0.2-0.1-0.2-0.2-0.2-0.3c0-0.1,0.1-0.3,0.1-0.4c0-0.1,0.1-0.3,0.2-0.4c0.2-0.3,0.4-0.5,0.8-0.6c0.1,0,0.1,0,0.2-0.1
			c0.2-0.1,0.4-0.2,0.6-0.2c0.1,0,0.1,0,0.2,0c0.4-0.3,0.8-0.5,1.2-0.9c0.2-0.2,0.5-0.4,0.7-0.6c0.1-0.1,0.1-0.1,0.2-0.2
			c0,0,0.1-0.1,0.1-0.1c0.1,0,0.2-0.1,0.2-0.3c0-0.1,0.2-0.2,0.3-0.3c-0.1-0.1-0.2-0.1-0.3-0.1c-0.2,0-0.5,0-0.7,0.1
			c-0.5,0.1-0.9,0.1-1.4,0c-0.1,0-0.1,0-0.2-0.1c-0.1,0-0.2-0.1-0.3-0.1c-0.5-0.1-0.7-0.5-1-0.8c-0.1-0.1-0.1-0.2-0.1-0.4
			c0-0.1,0-0.3-0.1-0.4c0.1-0.1,0.2-0.3,0.3-0.5c0.3,0,0.7,0.1,1,0.1c0,0,0,0.1,0,0.1c0.4,0,0.7-0.1,1-0.2c0.3-0.1,0.7-0.1,1-0.1
			c0.3,0,0.7-0.1,1-0.1c0.1,0,0.2,0,0.2,0c0.3,0,0.6,0,1-0.1c0.1,0,0.1-0.1,0.2-0.1c0.3-0.3,0.4-0.7,0.5-1.1
			c0.1-0.3,0.2-0.5,0.3-0.8c0-0.1,0-0.1,0.1-0.2c-0.2,0-0.4-0.1-0.7-0.1c-0.2,0-0.5,0-0.7,0c-0.2,0-0.3,0-0.5,0
			c-0.4-0.1-0.9-0.2-1.3-0.3c-0.1,0-0.2-0.1-0.3-0.2c-0.2-0.2-0.4-0.4-0.5-0.7c0-0.2-0.1-0.4-0.1-0.6c0-0.5,0.3-0.8,0.9-0.6
			c0.3,0.1,0.6,0.2,1,0.2c0.1,0,0.1,0,0.2,0c0.2,0,0.5-0.1,0.7-0.1c0.6,0,1.1-0.1,1.7-0.2c0.1,0,0.2,0,0.3,0c0.2,0,0.3,0,0.4-0.3
			c0-0.1,0.1-0.2,0.1-0.3c0.1-0.4,0.2-0.8,0.3-1.1c0.1-0.3,0.2-0.7,0.3-1c0-0.1,0-0.2,0.1-0.3c-0.1,0-0.2,0-0.2,0
			c-0.5,0-0.9,0-1.4,0c-0.2,0-0.5-0.1-0.7-0.1c-0.3,0-0.5-0.1-0.8-0.1c-0.1,0-0.3-0.1-0.4-0.2c-0.2-0.1-0.3-0.2-0.5-0.2
			c-0.2-0.1-0.4-0.2-0.5-0.4c-0.2-0.3-0.4-0.5-0.5-0.8c-0.1-0.2-0.2-0.4-0.2-0.7c0-0.3,0-0.6,0.2-0.8c0.1-0.1,0.1-0.2,0.1-0.2
			c0.1-0.2,0.2-0.3,0.4-0.2c0,0,0.1,0,0.1,0.1c0.2,0.2,0.5,0.3,0.7,0.5c0.1,0.1,0.2,0.1,0.3,0.2c0.4,0.1,0.8,0.1,1.3,0.2
			c0.4,0,0.9,0.1,1.3,0.1c0,0,0.1,0,0.1,0c0.2-0.2,0.4-0.1,0.6-0.1c0.3,0,0.5,0,0.8,0c0.1,0,0.2-0.1,0.2-0.2
			c0.1-0.5,0.2-1.1,0.3-1.6c0.1-0.3,0.1-0.7,0.2-1c0-0.1,0-0.1,0.1-0.1c0.2-0.3,0.4-0.3,0.6,0c0.2,0.3,0.4,0.7,0.4,1
			c0,0.2,0,0.4,0.1,0.6c0,0.3,0.1,0.7,0.1,1c0,0.3,0.1,0.4,0.5,0.4c0.1,0,0.2-0.1,0.3,0c0,0,0.2,0,0.2,0c0.2-0.2,0.5-0.1,0.8-0.1
			c0.3,0,0.6,0,0.9,0.1c0.1,0,0.2,0,0.3,0c0.2,0,0.5,0,0.7,0.1c0.1,0.1,0.2,0.2,0.3,0.2c0.4,0.2,0.4,0.3,0.5,0.8c0,0,0.1,0,0.1,0.1
			c0.1,0.1,0.1,0.2,0,0.3c-0.1,0.1-0.2,0.3-0.3,0.4c-0.1,0.1-0.2,0.2-0.4,0.2c-0.2,0-0.3,0.1-0.3,0.3c-0.2,0-0.4,0-0.5,0.3
			c-0.2,0-0.3,0-0.4,0.1c0,0-0.1,0-0.1,0c-0.3,0-0.6,0-0.9,0c-0.1,0-0.2,0-0.3,0.1c-0.2,0.1-0.3,0.1-0.5,0.1c-0.4,0-0.8,0-1.1-0.1
			c-0.2,0-0.3,0.1-0.4,0.3c-0.1,0.2-0.1,0.3-0.1,0.5c-0.1,0.5-0.2,1.1-0.5,1.6c-0.1,0.1-0.1,0.3-0.1,0.4c0.1,0.1,0.2,0.1,0.4,0.1
			c0.1,0,0.1-0.1,0.2-0.1c0.4,0.1,0.7-0.1,1.1-0.1c0.6,0,1.3-0.1,1.9-0.1c0.2,0,0.5,0,0.7-0.1c0.2,0,0.4,0.1,0.5,0.2
			c0.1,0.1,0.2,0.2,0.4,0.2c0.1,0,0.2,0.1,0.2,0.2c-0.1,0-0.2,0-0.3,0c0.1,0.1,0,0.3,0.2,0.3c0,0,0.1,0.2,0,0.3
			c-0.1,0.2,0,0.4-0.2,0.6c0,0,0,0.1,0,0.1c-0.2,0.1-0.5,0.1-0.7,0.1c-0.2,0-0.4,0-0.4,0.2c-0.1-0.1-0.2-0.3-0.4-0.1
			c0,0,0.1,0.1,0.1,0.1c0,0,0,0,0,0c-0.4,0.1-0.9,0.2-1.3,0.2c-0.5,0.1-1,0.1-1.5,0.1c-0.5,0-0.9,0.1-1.3,0.2
			c-0.2,0-0.2,0.2-0.2,0.3c-0.1,0.3-0.1,0.5-0.2,0.8c-0.1,0.2-0.2,0.3-0.3,0.5c-0.1,0.2-0.1,0.3-0.2,0.5c0.2,0,0.4,0.1,0.5,0
			c0.3-0.1,0.6-0.1,0.9,0c0.1,0,0.3,0,0.4-0.1c0.5-0.1,1-0.2,1.5-0.1c0.3,0,0.6-0.1,0.8-0.1c0.1,0,0.1,0,0.2,0
			c0.4,0.1,0.8-0.1,1.1-0.1c0.1,0,0.2,0,0.3,0c0.2,0.1,0.3,0,0.3-0.2c0.3,0,0.6,0,0.9,0c0.2,0,0.3,0,0.5,0c0.2,0,0.3,0.1,0.4,0.3
			c0.1,0.2,0.3,0.4,0.4,0.6c0,0.1,0,0.2,0.1,0.4c0,0.3,0.1,0.5,0,0.8c-0.1,0.3-0.3,0.5-0.6,0.5c-0.4,0-0.8,0.1-1.2,0.2
			c-0.1,0-0.3,0-0.4,0c-0.5,0-1,0.1-1.4,0.1c-0.2,0-0.4,0-0.5,0c-0.3,0-0.6,0-0.9,0C109.1,118.9,109,118.9,108.9,119L108.9,119z
			 M111.8,113.7C111.8,113.7,111.8,113.6,111.8,113.7c-0.1-0.1-0.1-0.1-0.2,0c0,0,0,0.1,0,0.1C111.8,113.7,111.8,113.7,111.8,113.7z
			"/>
		<path class="st2" d="M110.5,129c0.2,0,0.5,0.1,0.8,0.1c0,0.1,0,0.1,0,0.1c-0.1,0.2-0.3,0.3-0.4,0.5c-0.1,0.1-0.2,0.1-0.4,0.1
			c0,0.2-0.2,0.4-0.2,0.6c0,0.1-0.2,0.3-0.3,0.4c-0.2,0.2-0.4,0.2-0.6-0.1c-0.1-0.1-0.2-0.2-0.3-0.1c-0.1,0-0.2,0-0.2,0.1
			c-0.4,0.2-0.9,0.3-1.4,0.4c-0.2,0-0.3,0.1-0.4,0.2c-0.4,0.1-0.7,0.1-1.1,0.1c-0.1,0-0.2,0-0.4,0c-0.5,0-0.9,0-1.3-0.2
			c-0.1,0-0.3,0-0.4,0c-0.2,0.1-0.4-0.1-0.5-0.2c-0.2-0.2-0.2-0.4-0.3-0.6c-0.2-0.5-0.2-1-0.1-1.5c0-0.4,0-0.7,0-1.1
			c0-0.2,0-0.3,0-0.5c0-0.3,0-0.6,0-0.8c0-0.3,0.1-0.7,0.1-1c0.1-0.4,0.1-0.7,0-1.1c-0.1-0.3-0.2-0.6-0.3-0.9
			c-0.1-0.1,0-0.3,0.1-0.5c0.1-0.2,0.4-0.3,0.6-0.3c0.3,0.1,0.6,0,0.9-0.1c0.5-0.1,0.9-0.2,1.4-0.3c0.3,0,0.6,0,1-0.1
			c0.5,0,1,0,1.4,0.1c0.5,0.1,1,0.3,1.4,0.7c0.3,0.3,0.5,0.7,0.7,1.1c0.1,0.3,0.1,0.5,0.1,0.8c0,0.1,0,0.2,0,0.2
			c0,0.2,0.1,0.5,0.1,0.7c0,0.1,0,0.3,0.1,0.4c0,0,0,0,0,0c-0.1,0.3,0.1,0.6,0,0.9c-0.1,0.2-0.1,0.5-0.1,0.7c0,0.2,0.1,0.4,0,0.5
			C110.4,128.6,110.4,128.8,110.5,129C110.4,129,110.5,129,110.5,129z M108.7,125.5c0-0.2-0.1-0.4-0.1-0.6c0-0.3-0.2-0.4-0.3-0.6
			c0,0-0.1-0.1-0.1-0.1c-0.4,0-0.8-0.1-1.1-0.1c-0.3,0-0.7,0.1-1,0.1c-0.3,0-0.6,0.2-0.9,0.1c-0.1,0-0.2,0.1-0.3,0.2
			c0,0.2,0,0.3,0,0.5c0,0.1,0,0.3,0,0.4c0,0.3,0,0.3,0.2,0.3c0.1,0,0.1,0,0.2,0c0.5,0.1,1-0.1,1.4-0.1c0.5,0,1-0.1,1.5-0.1
			C108.3,125.5,108.5,125.6,108.7,125.5z M104.5,127.9c0,0.4-0.1,0.7-0.1,1.1c0,0.2,0,0.3,0.2,0.3c0.1,0,0.2,0,0.3,0
			c0.4,0,0.9-0.1,1.3-0.1c0.2,0,0.4,0,0.6,0c0.2,0,0.5,0,0.7-0.1c0.2,0,0.3,0,0.5,0c0.3,0,0.6,0,0.9,0c0-0.4,0-0.8,0-1.2
			c-0.1,0-0.3,0-0.4,0c-0.2,0-0.4,0.1-0.5,0.1c-0.3-0.1-0.6,0.1-1,0.1c-0.5,0-1,0.2-1.6,0.1c-0.1,0-0.2,0-0.3-0.1
			C104.9,127.9,104.7,127.7,104.5,127.9z"/>
		<path class="st2" d="M108.9,119L108.9,119c0.3,0.2,0.7,0.4,1,0.7c0.1,0.1,0.2,0.2,0.4,0.2c0.1,0,0.2,0.1,0.2,0.2
			c0,0.1,0.1,0.2,0.3,0.3c0.2,0.1,0.3,0.3,0.4,0.4c0,0,0,0.1,0.1,0.1c0.4,0.2,0.6,0.5,0.8,0.7c0.1,0,0.1,0.1,0.2,0.2
			c0.1,0,0.1,0.1,0.2,0.1c0.1,0,0.1,0.1,0.2,0.1c0.1,0.2,0.4,0.3,0.6,0.4c0.4,0.2,0.7,0.5,1.1,0.7c0.1,0.1,0.2,0.1,0.2,0.2
			c0.1,0.3,0.3,0.6,0.3,1c0,0.1,0,0.1,0,0.2c0,0.1-0.1,0.2-0.1,0.3c0,0.2-0.2,0.3-0.4,0.3c-0.1,0-0.2-0.1-0.3,0c0,0-0.1,0-0.2,0
			c-0.1,0-0.2-0.1-0.2-0.1c-0.2,0.1-0.3,0.1-0.5,0c-0.4-0.2-0.7-0.5-1.1-0.7c-0.1,0-0.1-0.1-0.2-0.2c-0.3-0.3-0.6-0.5-1-0.7
			c-0.2-0.1-0.3-0.3-0.5-0.5c-0.1-0.1-0.1-0.1-0.2-0.2c-0.1-0.1-0.3-0.2-0.4-0.4c-0.2-0.1-0.3-0.3-0.5-0.4c-0.2-0.2-0.3-0.3-0.4-0.6
			c0-0.2-0.2-0.3-0.3-0.5c0-0.1-0.1-0.2-0.2-0.2c-0.3-0.3-0.2-0.6-0.2-0.9c0-0.1,0.1-0.2,0.1-0.3c0.2-0.1,0.3-0.3,0.5-0.3
			C108.8,119.1,108.9,119,108.9,119z"/>
	</g>
	<path class="st2" d="M37.2,109.4c-0.5,0-1-0.3-1.4-0.5c-0.5-0.3-0.7-0.7-0.8-1.3c0-0.1,0-0.2,0.1-0.3c0,0,0.1-0.1,0-0.1
		c0-0.3,0.2-0.4,0.4-0.5c0.4-0.2,0.7-0.2,1.1,0c0.2,0.1,0.5,0.1,0.7,0c0.3-0.2,0.7-0.2,1-0.4c0.3-0.1,0.6-0.2,0.8-0.4
		c0,0,0.1,0,0.1,0c0.2,0,0.4,0,0.6,0c0.3-0.1,0.6,0,0.8,0.1c0.3,0.1,0.4,0.4,0.6,0.6c0,0,0,0.1,0,0.2c-0.1,0.2-0.1,0.5-0.1,0.8
		c0,0.2,0,0.5-0.3,0.6c-0.1,0-0.1,0.1-0.1,0.2c0,0.1-0.2,0.2-0.3,0.3c-0.2,0.1-0.3,0.2-0.5,0.2c-0.3,0.1-0.6,0.2-0.8,0.3
		c-0.4,0.1-0.8,0.2-1.2,0.3C37.8,109.5,37.5,109.4,37.2,109.4z"/>
	<path class="st2" d="M35,118.9c0.1-0.2,0-0.4,0.2-0.5c0.1,0,0.1-0.1,0.1-0.1c0.3,0,0.5-0.3,0.7-0.4c0.3-0.2,0.5-0.5,0.8-0.7
		c0.3-0.2,0.5-0.5,0.8-0.7c0.3-0.2,0.5-0.4,0.8-0.6c0.4-0.3,0.7-0.5,1.1-0.8c0.1-0.1,0.2-0.2,0.4-0.2c0.6-0.4,1.2-0.7,1.8-1.1
		c0.3-0.2,0.7-0.3,1.1-0.5c0,0,0.1,0,0.2,0c-0.1,0.2-0.3,0.4-0.4,0.6c0,0,0.1,0.1,0.1,0.2c-0.1,0.1-0.2,0.1-0.4,0.2
		c0,0.1,0,0.1,0.1,0.2c-0.1,0-0.2,0-0.4,0.1c0,0.1,0.1,0.1,0.1,0.1c0,0,0,0.1-0.1,0.1c-0.4,0.1-0.5,0.5-0.7,0.8
		c-0.3,0.3-0.5,0.6-0.7,0.9c-0.2,0.3-0.4,0.4-0.6,0.6c-0.1,0.1-0.1,0.2-0.2,0.3c0,0-0.1,0.1-0.1,0.1c-0.2,0.2-0.4,0.4-0.6,0.5
		c-0.4,0.3-0.7,0.7-1.1,0.9c-0.4,0.3-0.8,0.6-1.3,0.6c-0.3,0-0.7,0-1-0.2C35.4,119.4,35.2,119.2,35,118.9z"/>
	<path class="st2" d="M36.3,112c0.4,0.1,0.8-0.1,1.1-0.2c0.3-0.2,0.7-0.3,1-0.5c0.2-0.1,0.5-0.2,0.7-0.4c0.1-0.1,0.2-0.1,0.3-0.1
		c0.3,0,0.6-0.1,0.9-0.2c0.4-0.1,0.8-0.1,1.1-0.1c0.4,0.1,0.6,0.3,0.7,0.6c0,0.1,0,0.2-0.1,0.2c-0.2,0.1-0.4,0.2-0.6,0.4
		c-0.2,0.1-0.4,0.2-0.6,0.3c-0.1,0.1-0.3,0.1-0.3,0.3c0,0.1-0.1,0.1-0.2,0.2c-0.2,0.2-0.5,0.3-0.6,0.5c-0.3,0.3-0.6,0.5-1,0.7
		c-0.2,0.1-0.4,0.3-0.7,0.4c-0.1,0-0.1,0.1-0.2,0.1c-0.3,0-0.5,0-0.8,0c-0.2,0-0.5-0.2-0.7-0.3c-0.1-0.1-0.2-0.2-0.4-0.3
		c-0.1-0.1-0.2-0.1-0.3-0.2c-0.2-0.3-0.2-0.6-0.2-1c0-0.2,0.1-0.4,0.4-0.4C36,112,36.2,112,36.3,112z"/>
	<path class="st2" d="M129.9,117.6c0.1,0,0.1,0,0.2,0.1c0,0,0,0,0,0C130,117.7,129.9,117.7,129.9,117.6
		C129.9,117.7,129.9,117.6,129.9,117.6z"/>
	<path class="st2" d="M109.4,113.7c-0.1,0-0.1,0-0.1,0c0,0,0,0,0-0.1C109.2,113.7,109.3,113.6,109.4,113.7
		C109.3,113.6,109.3,113.7,109.4,113.7z"/>
	<path class="st2" d="M86.4,115.1c0,0.1,0.1,0.2-0.1,0.2C86.3,115.2,86.4,115.1,86.4,115.1C86.4,115.1,86.4,115.1,86.4,115.1z"/>
</g>
</svg>
